<svg width="86" height="86" viewBox="0 0 86 86" fill="none" xmlns="http://www.w3.org/2000/svg">
<path d="M42.5754 80.8639C37.8052 80.8603 33.1121 79.6594 28.9253 77.3713L27.1697 76.4091C17.9197 71.3744 12.4004 62.9284 12.4004 53.8167V8.56607C12.4061 8.02381 12.5361 7.49011 12.7804 7.00607C13.0247 6.52202 13.3767 6.10056 13.8093 5.77415C14.3533 5.36316 14.983 5.08054 15.6515 4.94741C16.3199 4.81428 17.0098 4.83408 17.6695 5.00532L23.2831 6.42215C26.5864 7.25345 30.043 7.26025 33.3495 6.44192L40.8505 4.57698C41.9939 4.29237 43.191 4.30371 44.3288 4.60993L50.7545 6.34087C54.055 7.22472 57.5225 7.2798 60.8494 6.50123L67.5493 4.93283C68.2055 4.77303 68.8892 4.7625 69.55 4.90201C70.2108 5.04153 70.832 5.32753 71.3678 5.739C71.7926 6.06641 72.1378 6.48596 72.3772 6.96612C72.6167 7.44627 72.7443 7.97453 72.7504 8.51115V45.0807C72.7504 45.5759 72.5539 46.0508 72.204 46.401C71.8542 46.7512 71.3798 46.9479 70.885 46.9479C70.3903 46.9479 69.9158 46.7512 69.566 46.401C69.2162 46.0508 69.0197 45.5759 69.0197 45.0807V8.64295C68.8332 8.54153 68.6154 8.51408 68.4096 8.56607L61.7074 10.1323C57.7786 11.0504 53.6841 10.9848 49.7867 9.94116L43.361 8.20801C42.8331 8.06786 42.2785 8.06258 41.748 8.19264L34.2493 10.0576C30.3477 11.0257 26.2682 11.0182 22.3702 10.0356L16.7566 8.61878C16.5463 8.56159 16.322 8.58837 16.1311 8.69348V53.8123C16.1311 61.5335 20.9218 68.7495 28.9473 73.1296L30.7029 74.0917C34.3412 76.0838 38.4217 77.1278 42.5688 77.1278C46.7159 77.1278 50.7964 76.0838 54.4347 74.0917L56.1903 73.1296C61.3695 70.3069 65.2143 66.331 67.3145 61.628C67.4113 61.3995 67.5526 61.1926 67.7302 61.0194C67.9078 60.8462 68.1181 60.7101 68.3488 60.6192C68.5795 60.5284 68.826 60.4844 69.0739 60.49C69.3218 60.4956 69.5661 60.5506 69.7925 60.6518C70.0189 60.753 70.2229 60.8983 70.3925 61.0793C70.5621 61.2604 70.694 61.4734 70.7804 61.706C70.8668 61.9387 70.906 62.1862 70.8957 62.4342C70.8854 62.6822 70.8258 62.9256 70.7204 63.1502C68.2845 68.6067 63.8778 73.1933 57.9767 76.4091L56.2211 77.3713C52.0356 79.6587 47.3441 80.8595 42.5754 80.8639V80.8639Z" fill="#33706B"/>
<path d="M71.5065 31.0926L42.0403 56.9426C41.5503 57.3573 40.9283 57.5833 40.2865 57.5796C39.6448 57.576 39.0254 57.3431 38.54 56.9228L21.8615 41.8868C21.5787 41.6443 21.3518 41.3434 21.1961 41.0048C21.0405 40.6662 20.96 40.2979 20.96 39.9252C20.96 39.5525 21.0405 39.1842 21.1961 38.8456C21.3518 38.507 21.5787 38.2062 21.8615 37.9636L25.9719 34.2579C26.5759 33.734 27.3484 33.4455 28.1478 33.4455C28.9471 33.4455 29.7196 33.734 30.3237 34.2579L39.1282 42.2031C39.609 42.6195 40.2214 42.8522 40.8571 42.8602C41.4928 42.8683 42.1109 42.6511 42.6021 42.2471L69.8277 19.0396C70.6001 18.3806 71.873 18.8727 71.873 19.8326V30.3106C71.8716 30.4596 71.8382 30.6066 71.775 30.7416C71.7117 30.8765 71.6202 30.9962 71.5065 31.0926V31.0926Z" fill="#33706B"/>
<path d="M70.8849 55.1633C71.9151 55.1633 72.7503 54.3273 72.7503 53.2962C72.7503 52.265 71.9151 51.429 70.8849 51.429C69.8547 51.429 69.0195 52.265 69.0195 53.2962C69.0195 54.3273 69.8547 55.1633 70.8849 55.1633Z" fill="#33706B"/>
</svg>
