<svg width="93" height="212" viewBox="0 0 93 212" fill="none" xmlns="http://www.w3.org/2000/svg">
<path d="M105.027 7.06597C105.169 10.6813 102.53 13.8573 98.8654 14.3356C85.6847 16.0321 66.2638 21.1862 48.5154 36.0425C40.0783 43.1005 12.7153 69.3173 14.3195 110.303L14.3229 110.391C14.3947 112.225 16.5456 155.415 53.2493 180.974C71.9836 194.022 91.6472 196.877 104.827 196.965C108.742 196.989 111.874 200.099 111.853 204.074C111.828 207.978 108.639 211.105 104.724 211.081C89.5244 210.966 66.868 207.662 45.1481 192.541C3.45565 163.502 0.384257 116.25 0.176491 110.942L0.172349 110.836C-1.68305 63.4309 29.7422 33.3115 39.4138 25.2164C59.7855 8.15607 81.9939 2.2753 97.0421 0.32945C100.919 -0.174715 104.462 2.56636 104.967 6.43245C104.993 6.64339 105.019 6.85434 105.027 7.06597V7.06597Z" fill="#F7BB66"/>
</svg>

