<svg width="86" height="86" viewBox="0 0 86 86" fill="none" xmlns="http://www.w3.org/2000/svg">
<path d="M43.4246 80.8716C22.5681 80.8716 5.59961 63.9031 5.59961 43.0466C5.59961 22.19 22.5681 5.22156 43.4246 5.22156C64.2811 5.22156 81.2496 22.19 81.2496 43.0466C81.2495 44.486 81.1688 45.9243 81.0077 47.3547C80.9517 47.8475 80.7022 48.2979 80.3142 48.6068C79.9261 48.9157 79.4312 49.0578 78.9383 49.0018C78.4455 48.9458 77.9951 48.6963 77.6862 48.3082C77.3773 47.9202 77.2352 47.4253 77.2912 46.9324C77.4384 45.6424 77.5118 44.345 77.5111 43.0466C77.5111 24.2506 62.2206 8.96008 43.4246 8.96008C24.6287 8.96008 9.33813 24.2506 9.33813 43.0466C9.33813 61.8425 24.6287 77.133 43.4246 77.133C48.085 77.1522 52.6988 76.2063 56.9756 74.3548C61.2524 72.5032 65.0996 69.7863 68.2748 66.3749C68.6142 66.0133 69.0834 65.8013 69.5791 65.7857C70.0748 65.77 70.5565 65.9519 70.9181 66.2913C71.2797 66.6308 71.4917 67.1 71.5073 67.5957C71.523 68.0914 71.3411 68.5731 71.0017 68.9347C67.4677 72.707 63.1963 75.7131 58.4525 77.7664C53.7088 79.8198 48.5937 80.8767 43.4246 80.8716V80.8716Z" fill="#33706B"/>
<path d="M43.6931 60.8705L39.8358 49.4746C39.637 48.8858 39.3001 48.3531 38.8532 47.9211C38.4063 47.4892 37.8625 47.1705 37.2673 46.9918L24.8048 43.2533C24.6001 43.1915 24.4193 43.0685 24.2866 42.9009C24.1539 42.7333 24.0757 42.529 24.0625 42.3157C24.0494 42.1023 24.1018 41.89 24.2129 41.7073C24.324 41.5246 24.4883 41.3804 24.6839 41.2939L58.5108 26.4014C58.7028 26.3161 58.9161 26.2908 59.1227 26.3286C59.3294 26.3664 59.5198 26.4656 59.6692 26.6134C59.8185 26.7611 59.9199 26.9504 59.96 27.1566C60.0002 27.3628 59.9772 27.5763 59.8941 27.7692L45.6437 60.9475C45.5606 61.1421 45.4203 61.3069 45.2414 61.4201C45.0625 61.5332 44.8534 61.5893 44.6419 61.581C44.4304 61.5726 44.2264 61.5002 44.057 61.3733C43.8876 61.2465 43.7607 61.0711 43.6931 60.8705V60.8705Z" fill="#33706B"/>
<path d="M43.4244 11.3791C46.3393 11.3791 48.7023 10.2961 48.7023 8.96006C48.7023 7.62406 46.3393 6.54102 43.4244 6.54102C40.5095 6.54102 38.1465 7.62406 38.1465 8.96006C38.1465 10.2961 40.5095 11.3791 43.4244 11.3791Z" fill="#33706B"/>
<path d="M43.2047 79.772C46.1196 79.772 48.4826 78.6889 48.4826 77.3529C48.4826 76.0169 46.1196 74.9339 43.2047 74.9339C40.2898 74.9339 37.9268 76.0169 37.9268 77.3529C37.9268 78.6889 40.2898 79.772 43.2047 79.772Z" fill="#33706B"/>
<path d="M9.11826 48.3245C10.4543 48.3245 11.5373 45.9615 11.5373 43.0466C11.5373 40.1317 10.4543 37.7687 9.11826 37.7687C7.78226 37.7687 6.69922 40.1317 6.69922 43.0466C6.69922 45.9615 7.78226 48.3245 9.11826 48.3245Z" fill="#33706B"/>
<path d="M75.422 63.0586C76.4544 63.0586 77.2913 62.2217 77.2913 61.1894C77.2913 60.157 76.4544 59.3201 75.422 59.3201C74.3896 59.3201 73.5527 60.157 73.5527 61.1894C73.5527 62.2217 74.3896 63.0586 75.422 63.0586Z" fill="#33706B"/>
</svg>
