<svg width="37" height="18" viewBox="0 0 37 18" fill="none" xmlns="http://www.w3.org/2000/svg">
<path d="M36.9292 9.33894C36.8858 9.39348 36.828 9.43439 36.802 9.43439C36.7702 9.43439 36.7441 9.47985 36.7326 9.54803C36.7066 9.71621 36.4232 10.0071 35.686 10.6208C33.4282 12.498 32.4973 13.5298 30.5864 16.2753C29.7972 17.4071 29.6266 17.6162 29.4965 17.6162C29.1872 17.6162 29.7625 15.7708 30.5488 14.2298C30.8466 13.6435 31.5028 12.5935 31.8729 12.1071C32.24 11.6253 32.7402 11.0708 33.1304 10.7071C33.5409 10.3298 33.6392 10.248 34.0411 9.9753C34.2174 9.85257 34.3389 9.75712 34.3157 9.75712C34.2926 9.75712 34.1481 9.7753 33.9977 9.79803C33.7375 9.83894 32.7286 9.94803 32.162 10.0026C30.2857 10.1798 27.1201 10.3162 23.1566 10.3935C18.3865 10.4889 10.8122 10.3571 7.03949 10.1162C6.65789 10.0935 6.00742 10.0526 5.59401 10.0253C2.21159 9.80712 -3.57043e-07 9.44803 -3.71745e-07 9.11167C-3.78501e-07 8.95712 0.566628 8.78439 1.53221 8.63894C3.10489 8.41167 5.32804 8.25712 9.26553 8.10712C11.3297 8.0253 21.4799 8.0253 23.7203 8.10712C26.4581 8.20257 29.4387 8.35257 30.702 8.45712C32.4886 8.60257 34.0006 8.78439 34.5759 8.91621C34.6482 8.92985 34.6135 8.89803 34.4603 8.79348C32.85 7.74348 31.4103 5.98439 30.3551 3.7753C29.8608 2.73894 29.4878 1.70258 29.3866 1.07985C29.3317 0.743485 29.3491 0.616212 29.4473 0.616212C29.5832 0.616212 29.7971 0.879847 30.6153 2.07076C32.48 4.77076 33.6161 6.05712 35.7178 7.82076C36.5071 8.48439 36.828 8.79348 36.932 8.98894C37.0246 9.15712 37.0217 9.22075 36.9292 9.33894Z" fill="#33706B"/>
</svg>
