<svg width="72" height="72" viewBox="0 0 72 72" fill="none" xmlns="http://www.w3.org/2000/svg">
<circle cx="36" cy="36" r="36" fill="#CBE6E4"/>
<path d="M51.822 54.4799H21.0819C20.2491 54.4788 19.4507 54.1436 18.8618 53.5479C18.2729 52.9522 17.9416 52.1447 17.9404 51.3022V24.8615C17.9416 24.0191 18.2729 23.2115 18.8618 22.6159C19.4507 22.0202 20.2491 21.685 21.0819 21.6838H51.822C52.6548 21.685 53.4532 22.0202 54.042 22.6159C54.6309 23.2115 54.9623 24.0191 54.9634 24.8615V51.3022C54.9623 52.1447 54.6309 52.9522 54.042 53.5479C53.4532 54.1436 52.6548 54.4788 51.822 54.4799ZM21.0819 23.8998C20.8297 23.8998 20.5879 24.0011 20.4096 24.1815C20.2313 24.3618 20.1311 24.6064 20.1311 24.8615V51.3022C20.1311 51.5573 20.2313 51.8019 20.4096 51.9823C20.5879 52.1626 20.8297 52.264 21.0819 52.264H51.822C52.0741 52.264 52.316 52.1626 52.4943 51.9823C52.6726 51.8019 52.7727 51.5573 52.7727 51.3022V24.8615C52.7727 24.6064 52.6726 24.3618 52.4943 24.1815C52.316 24.0011 52.0741 23.8998 51.822 23.8998H21.0819Z" fill="#33706B"/>
<path d="M27.4704 27.2238C27.1798 27.2238 26.9012 27.1071 26.6958 26.8993C26.4904 26.6915 26.375 26.4097 26.375 26.1158V19.468C26.375 19.1741 26.4904 18.8923 26.6958 18.6845C26.9012 18.4767 27.1798 18.36 27.4704 18.36C27.7609 18.36 28.0395 18.4767 28.2449 18.6845C28.4503 18.8923 28.5657 19.1741 28.5657 19.468V26.1158C28.5657 26.4097 28.4503 26.6915 28.2449 26.8993C28.0395 27.1071 27.7609 27.2238 27.4704 27.2238V27.2238Z" fill="#33706B"/>
<path d="M42.7497 34.5363C43.3849 34.5363 43.8999 34.0155 43.8999 33.373C43.8999 32.7305 43.3849 32.2096 42.7497 32.2096C42.1145 32.2096 41.5996 32.7305 41.5996 33.373C41.5996 34.0155 42.1145 34.5363 42.7497 34.5363Z" fill="#33706B"/>
<path d="M38.3141 34.5365H20.3502C20.0597 34.5365 19.7811 34.4198 19.5757 34.212C19.3703 34.0042 19.2549 33.7224 19.2549 33.4285C19.2549 33.1347 19.3703 32.8529 19.5757 32.6451C19.7811 32.4373 20.0597 32.3206 20.3502 32.3206H38.3141C38.6046 32.3206 38.8832 32.4373 39.0886 32.6451C39.294 32.8529 39.4094 33.1347 39.4094 33.4285C39.4094 33.7224 39.294 34.0042 39.0886 34.212C38.8832 34.4198 38.6046 34.5365 38.3141 34.5365V34.5365Z" fill="#33706B"/>
<path d="M45.4342 27.2238C45.1437 27.2238 44.8651 27.1071 44.6597 26.8993C44.4543 26.6915 44.3389 26.4097 44.3389 26.1158V19.468C44.3389 19.1741 44.4543 18.8923 44.6597 18.6845C44.8651 18.4767 45.1437 18.36 45.4342 18.36C45.7247 18.36 46.0033 18.4767 46.2088 18.6845C46.4142 18.8923 46.5296 19.1741 46.5296 19.468V26.1158C46.5296 26.4097 46.4142 26.6915 46.2088 26.8993C46.0033 27.1071 45.7247 27.2238 45.4342 27.2238V27.2238Z" fill="#33706B"/>
<path d="M52.4441 34.5365H48.3913C48.1007 34.5365 47.8221 34.4198 47.6167 34.212C47.4113 34.0042 47.2959 33.7224 47.2959 33.4285C47.2959 33.1347 47.4113 32.8529 47.6167 32.6451C47.8221 32.4373 48.1007 32.3206 48.3913 32.3206H52.4441C52.7346 32.3206 53.0132 32.4373 53.2186 32.6451C53.424 32.8529 53.5394 33.1347 53.5394 33.4285C53.5394 33.7224 53.424 34.0042 53.2186 34.212C53.0132 34.4198 52.7346 34.5365 52.4441 34.5365V34.5365Z" fill="#33706B"/>
</svg>
