<svg width="141" height="11" viewBox="0 0 141 11" fill="none" xmlns="http://www.w3.org/2000/svg">
<path d="M70.5185 5.66903L70.319 5.71011H70.1152C50.8356 5.71011 33.3954 6.08945 20.7881 6.70129C16.7742 6.89609 13.2634 7.11385 10.3463 7.34906C10.9722 7.4028 11.6331 7.45523 12.3299 7.50618C20.6514 8.11465 33.8141 8.49438 53.101 8.49438C72.3806 8.49438 94.0839 8.11506 110.96 7.50217C119.401 7.19558 126.613 6.83132 131.703 6.42884C132.233 6.38689 132.739 6.34467 133.219 6.30222C129.913 5.36582 125.301 4.37171 119.635 3.63398C107.292 2.0269 90.044 1.64947 70.5185 5.66903Z" stroke="#F28D00" stroke-width="4"/>
</svg>
