<svg width="31" height="37" viewBox="0 0 31 37" fill="none" xmlns="http://www.w3.org/2000/svg">
<path d="M2.51015 1.34112C2.44991 0.792134 1.95603 0.395923 1.40704 0.456161C0.858052 0.5164 0.461841 1.01028 0.522079 1.55927L2.51015 1.34112ZM8.63288 23.3564L9.38997 22.7031L8.63288 23.3564ZM30.3821 29.4362C30.7509 29.0251 30.7166 28.3928 30.3056 28.024L23.6067 22.0136C23.1956 21.6448 22.5633 21.6791 22.1945 22.0901C21.8257 22.5012 21.8599 23.1334 22.271 23.5023L28.2256 28.8448L22.883 34.7994C22.5142 35.2105 22.5484 35.8427 22.9595 36.2116C23.3706 36.5804 24.0028 36.5461 24.3717 36.1351L30.3821 29.4362ZM1.51611 1.4502C0.522079 1.55927 0.522102 1.55947 0.522131 1.55973C0.522149 1.5599 0.522185 1.56023 0.522222 1.56056C0.522296 1.56123 0.522396 1.56214 0.522523 1.56328C0.522777 1.56557 0.523137 1.5688 0.523604 1.57297C0.524538 1.58131 0.525902 1.59338 0.527701 1.60909C0.5313 1.6405 0.536645 1.68648 0.543795 1.74625C0.558096 1.86579 0.579625 2.04054 0.608867 2.26437C0.667341 2.71197 0.756705 3.3562 0.880848 4.148C1.12896 5.73051 1.51685 7.90789 2.07619 10.2858C3.18049 14.9805 5.00062 20.6779 7.8758 24.0097L9.38997 22.7031C6.86547 19.7776 5.12722 14.5219 4.02305 9.82784C3.47816 7.51135 3.09929 5.38541 2.85671 3.83821C2.73551 3.06516 2.64854 2.43794 2.59201 2.00529C2.56376 1.789 2.54312 1.62143 2.52964 1.50868C2.52289 1.45231 2.51793 1.40965 2.51471 1.38147C2.51309 1.36738 2.51191 1.35691 2.51115 1.35015C2.51077 1.34677 2.5105 1.34432 2.51033 1.34281C2.51025 1.34206 2.51019 1.34154 2.51016 1.34126C2.51015 1.34112 2.51014 1.34108 2.51014 1.34101C2.51014 1.34104 2.51015 1.34112 1.51611 1.4502ZM7.8758 24.0097C9.38196 25.7551 11.5477 26.9517 13.8539 27.7826C16.1698 28.617 18.7054 29.1104 21.0364 29.4012C23.3717 29.6925 25.5301 29.7838 27.1031 29.8026C27.8905 29.812 28.5336 29.8033 28.9816 29.7921C29.2056 29.7866 29.381 29.7804 29.5015 29.7755C29.5617 29.7731 29.6082 29.771 29.6402 29.7695C29.6562 29.7687 29.6686 29.7681 29.6772 29.7676C29.6815 29.7674 29.6849 29.7672 29.6873 29.7671C29.6886 29.7671 29.6895 29.767 29.6903 29.767C29.6907 29.7669 29.6911 29.7669 29.6912 29.7669C29.6916 29.7669 29.6918 29.7669 29.6377 28.7683C29.5836 27.7698 29.5838 27.7698 29.5839 27.7698C29.5838 27.7698 29.5838 27.7698 29.5837 27.7698C29.5835 27.7698 29.5831 27.7698 29.5824 27.7699C29.5811 27.7699 29.5788 27.7701 29.5756 27.7702C29.5692 27.7705 29.5591 27.771 29.5454 27.7717C29.518 27.773 29.4762 27.7749 29.4209 27.7771C29.3101 27.7816 29.1449 27.7874 28.9317 27.7928C28.5052 27.8034 27.8869 27.8118 27.127 27.8027C25.6053 27.7845 23.5249 27.6961 21.284 27.4166C19.0387 27.1365 16.6606 26.668 14.5318 25.901C12.3934 25.1306 10.5836 24.0864 9.38997 22.7031L7.8758 24.0097Z" fill="#D6E2E1"/>
</svg>
