<svg width="44" height="42" viewBox="0 0 44 42" fill="none" xmlns="http://www.w3.org/2000/svg">
<g clip-path="url(#clip0_2545_19341)">
<path d="M44 15.3145C43.8857 14.586 43.8072 13.8506 43.6588 13.1308C42.671 8.55386 40.378 4.84908 36.4932 2.22927C35.4254 1.52257 34.2599 0.980805 33.035 0.621726C32.6938 0.517902 32.4054 0.552509 32.2434 0.917622C32.0932 1.2637 32.2229 1.59248 32.6085 1.76898C33.8168 2.30048 34.9509 2.99108 35.9814 3.82296C39.1547 6.4497 41.2379 9.75995 42.0244 13.8593C42.5976 16.8546 42.195 19.6976 40.5827 22.3105C39.0199 24.8317 36.7321 26.2177 33.8573 26.6452C32.5991 26.8251 31.3219 26.8217 30.0647 26.6348C29.9316 25.728 29.8378 24.8334 29.6689 23.9561C29.0052 20.5334 27.4749 17.5329 25.2911 14.8629C24.3101 13.6637 23.2659 12.5165 21.9915 11.6374C20.2649 10.4435 18.3865 10.0524 16.4296 10.9885C14.6997 11.8139 14.0121 13.3419 13.9985 15.209C13.9797 17.564 14.8754 19.5972 16.2778 21.409C18.7943 24.6569 22.1484 26.6573 25.9616 27.9429C26.5962 28.1575 27.2462 28.3219 27.9167 28.5157C27.7206 30.0308 27.2349 31.4926 26.487 32.8192C23.8596 37.4221 19.8606 39.5228 14.6792 39.1611C11.1937 38.9171 8.32742 37.2698 6.03615 34.5998C5.92184 34.4683 5.81947 34.3281 5.69493 34.2035C5.62507 34.1253 5.54049 34.0621 5.44616 34.0175C5.35183 33.973 5.24966 33.948 5.14568 33.9442C5.04169 33.9403 4.938 33.9576 4.8407 33.995C4.7434 34.0324 4.65447 34.0892 4.57915 34.162C4.23793 34.4596 4.17651 34.8541 4.47167 35.2383C6.68958 38.1575 9.41932 40.343 13.0209 41.2359C15.6244 41.8813 18.1716 41.5923 20.63 40.561C23.8426 39.213 26.4307 37.1002 28.2204 34.0322C29.0553 32.6225 29.6057 31.0584 29.8395 29.4311C29.8651 29.2459 29.906 29.0642 29.9316 28.912C30.9553 28.912 31.9533 28.9587 32.9463 28.912C36.0616 28.7389 38.8425 27.7491 40.9359 25.2781C42.543 23.3747 43.4643 21.1546 43.8362 18.6888C43.8931 18.3208 43.95 17.9522 44.0068 17.5831L44 15.3145ZM27.985 26.2662C27.9031 26.2489 27.8502 26.2437 27.799 26.2281C23.6583 25.0307 20.1335 22.866 17.3799 19.4623C15.8905 17.6229 15.5954 15.6658 16.6565 13.5201C17.2588 12.3002 18.1272 11.9264 19.3317 12.5078C20.1151 12.859 20.8461 13.3197 21.5035 13.8766C24.2094 16.3147 26.0349 19.3775 27.2616 22.8158C27.66 23.9261 27.9035 25.0875 27.985 26.2662Z" fill="#33706B"/>
<path d="M1.89041 32.9785C3.44807 32.9785 4.84536 32.9646 6.24265 32.9785C6.68452 32.9785 7.12298 33.0892 7.56316 33.1377C8.05451 33.1913 8.43156 32.9335 8.49639 32.513C8.55099 32.1409 8.32578 31.8831 7.83614 31.7585C5.62846 31.1979 3.37642 31.0491 1.11244 31.03C0.373702 31.03 -0.00846481 31.4644 6.58035e-05 32.2084C0.0229397 34.1835 0.220505 36.1525 0.590375 38.0918C0.689329 38.6265 0.853111 39.13 1.33423 39.4605C1.99448 39.9035 2.66839 39.6093 2.73151 38.8099C2.74186 38.3631 2.70122 37.9166 2.61039 37.4792C2.38348 36.0118 2.14121 34.5445 1.89041 32.9785Z" fill="#33706B"/>
</g>
<defs>
<clipPath id="clip0_2545_19341">
<rect width="44" height="41" fill="white" transform="matrix(-1 0 0 1 44 0.578369)"/>
</clipPath>
</defs>
</svg>
