<svg width="52" height="224" viewBox="0 0 52 224" fill="none" xmlns="http://www.w3.org/2000/svg">
<path d="M-64.4377 148.974C-64.7472 146.688 -63.2672 144.751 -60.9724 144.543C-52.7177 143.808 -40.7162 141.05 -30.3652 132.125C-25.4443 127.885 -9.68723 112.034 -13.1959 86.1196L-13.2034 86.0638C-13.3604 84.9041 -17.3497 57.5848 -42.1772 40.5127C-54.8496 31.7978 -67.4918 29.4933 -75.8543 29.1016C-78.3381 28.9864 -80.5135 26.943 -80.7414 24.4343C-80.9634 21.9702 -79.1311 20.0777 -76.6472 20.193C-67.0022 20.6535 -52.435 23.3176 -37.7433 33.4179C-9.54105 52.814 -4.72113 82.721 -4.2667 86.0773L-4.25764 86.1442C-0.199456 116.117 -18.2951 134.328 -23.9358 139.192C-35.8163 149.441 -49.5411 152.587 -58.9648 153.431C-61.3922 153.65 -63.8054 151.829 -64.361 149.376C-64.3903 149.242 -64.4196 149.108 -64.4377 148.974Z" fill="#85A9A6"/>
<path d="M-85.5883 177.279C-84.7419 174.273 -81.8604 172.663 -78.8979 173.64C-68.2496 177.173 -51.8583 180.21 -34.1959 174.698C-25.8008 172.081 2.30553 160.877 11.901 126.801L11.9217 126.728C12.3511 125.203 22.1063 89.1228 0.461815 54.55C-10.5855 36.9022 -25.0469 27.2327 -35.2227 22.2434C-38.2457 20.7629 -39.8473 17.0535 -38.7797 13.8148C-37.7285 10.6347 -34.4337 9.27081 -31.4107 10.7514C-19.679 16.5167 -3.0203 27.6695 9.78907 48.1253C34.374 87.4018 24.2571 127.143 23.0143 131.557L22.9895 131.645C11.8911 171.058 -20.3906 183.933 -30.0152 186.937C-50.2904 193.27 -69.031 189.787 -81.1902 185.761C-84.3233 184.726 -86.3403 181.165 -85.7092 177.819C-85.6735 177.637 -85.6378 177.455 -85.5883 177.279Z" fill="#85A9A6"/>
</svg>
