<svg width="192" height="200" viewBox="0 0 192 200" fill="none" xmlns="http://www.w3.org/2000/svg">
<path d="M96.6138 14.863C93.8701 14.5721 91.1363 14.1445 88.3907 13.9857C70.8912 13.1355 55.2753 17.862 42.0338 29.4106C38.4425 32.5981 35.3524 36.2994 32.8647 40.393C32.1581 41.5296 32.003 42.6085 33.165 43.5497C34.2698 44.4292 35.5838 44.2775 36.5963 43.0503C39.6909 39.1838 43.2883 35.7406 47.2958 32.8096C59.8711 23.8472 73.8574 19.4995 89.4354 20.6172C100.817 21.4391 110.7 25.6519 118.576 34.0277C126.168 42.1353 128.954 51.7727 127.706 62.6099C127.134 67.3463 125.881 71.9736 123.984 76.3512C120.578 75.9557 117.254 75.4297 113.919 75.1926C100.906 74.2847 88.5757 76.928 76.8054 82.2607C71.5188 84.6564 66.3585 87.3313 61.9437 91.1011C55.9516 96.2051 52.7134 102.637 54.1952 110.639C55.4973 117.711 60.3509 121.683 67.0849 123.54C75.5773 125.889 83.7951 124.61 91.7047 121.28C105.887 115.3 116.374 105.076 124.725 92.4951C126.117 90.4017 127.342 88.204 128.694 85.9606C133.979 88.1389 138.79 91.3152 142.857 95.3115C156.938 109.295 160.644 125.829 154.303 144.265C150.035 156.667 141.298 165.464 129.423 171.186C128.837 171.474 128.231 171.709 127.659 172.04C127.309 172.218 126.998 172.463 126.746 172.762C126.493 173.061 126.304 173.407 126.189 173.78C126.074 174.154 126.035 174.546 126.076 174.935C126.117 175.324 126.235 175.702 126.425 176.045C127.169 177.571 128.535 178.175 130.21 177.477C142.914 172.262 153.464 164.481 160.19 152.287C165.052 143.472 166.482 133.957 165.144 124.044C163.394 111.091 158.273 99.6609 148.925 90.2011C144.641 85.8088 139.524 82.2989 133.87 79.8754C133.226 79.6033 132.609 79.279 132.084 79.0387C133.078 75.3272 134.217 71.7536 135.013 68.1081C137.414 56.6451 136.539 45.6036 129.643 35.6208C124.326 27.9505 117.198 22.4604 108.648 18.7242C107.374 18.1617 106.097 17.5986 104.818 17.0349L96.6138 14.863ZM120.631 83.5349C120.489 83.8151 120.419 84.0019 120.313 84.1724C111.963 98.0262 100.716 108.71 85.7405 115.398C77.6463 119.018 70.2872 118.193 63.5642 112.267C59.7407 108.903 59.2337 105.392 62.505 101.588C64.5352 99.0874 66.9104 96.8829 69.5613 95.0384C81.001 87.5883 93.8427 83.9351 107.46 82.8167C111.859 82.4474 116.293 82.6892 120.631 83.5349V83.5349Z" fill="#F28D00"/>
<path d="M119.536 184.648C121.049 179.001 122.357 173.921 123.764 168.868C124.194 167.266 125.02 165.783 125.622 164.234C126.294 162.505 125.728 160.888 124.272 160.246C122.98 159.687 121.83 160.254 120.904 161.909C116.733 169.371 114.007 177.392 111.739 185.582C111.021 188.261 112.22 190.067 114.917 190.757C122.076 192.586 129.384 193.777 136.751 194.313C138.78 194.472 140.758 194.366 142.42 192.942C144.662 190.977 144.254 188.248 141.426 187.245C139.822 186.775 138.169 186.49 136.5 186.396C130.977 185.798 125.439 185.255 119.536 184.648Z" fill="#F28D00"/>
</svg>
