<svg width="89" height="304" viewBox="0 0 89 304" fill="none" xmlns="http://www.w3.org/2000/svg">
<path d="M137.626 67.0017C138.868 70.626 137.082 74.2604 133.411 75.3405C120.199 79.2013 101.536 87.5678 87.5527 105.45C80.904 113.946 60.3482 144.857 74.4282 185.944L74.4585 186.033C75.0886 187.871 90.4053 231.093 136.365 250.894C159.824 261.003 181.164 260.677 194.915 258.616C198.999 258.002 203.203 260.629 204.384 264.643C205.541 268.586 203.166 272.261 199.082 272.875C183.22 275.237 158.627 275.598 131.431 263.884C79.223 241.386 61.7179 194.216 59.8943 188.895L59.8579 188.789C43.5726 141.266 67.1769 105.756 74.7971 96.0119C90.8451 75.4785 112.191 65.9244 127.271 61.5075C131.155 60.3668 135.675 62.5545 137.372 66.3724C137.463 66.581 137.554 66.7895 137.626 67.0017Z" fill="#85A9A6"/>
<path d="M162.95 14.0615C162.541 19.2319 158.366 22.7844 153.224 22.1489C134.735 19.8304 107.05 20.173 80.0531 34.854C67.2202 41.8267 25.0448 69.1515 20.4094 127.765L20.3995 127.891C20.192 130.514 15.9434 192.446 62.3653 241.787C86.0597 266.973 112.741 278.06 130.93 282.904C136.333 284.341 140.14 289.867 139.446 295.488C138.759 301.009 133.832 304.294 128.429 302.858C107.454 297.251 76.7141 284.457 49.2427 255.264C-3.48791 199.209 0.168308 131.196 0.768667 123.604L0.780634 123.453C6.14198 55.6588 54.5804 24.2625 69.2918 16.2632C100.28 -0.599229 131.937 -0.972462 153.047 1.6619C158.485 2.33639 162.92 7.48702 162.972 13.1429C162.973 13.4509 162.974 13.7589 162.95 14.0615Z" fill="#85A9A6"/>
</svg>
