<svg width="311" height="102" viewBox="0 0 311 102" fill="none" xmlns="http://www.w3.org/2000/svg">
<path d="M185.673 2.69556L185.673 2.69555C127.121 -1.14082 65.0011 9.17154 22.4263 33.3732L22.426 33.3734C14.8496 37.6874 7.65521 42.7071 3.86132 49.2695L3.86027 49.2713C1.55198 53.3104 0.724211 57.0862 1.14038 60.6041C1.55631 64.1199 3.20943 67.3335 5.78495 70.2597C10.9233 76.0976 19.7857 80.8518 30.1105 84.6832C50.7777 92.3524 77.551 96.4106 92.9331 97.9303C131.461 101.79 170.25 101.663 208.752 97.5502C227.196 95.5941 245.522 92.5446 263.645 88.4159L263.646 88.4156C265.69 87.944 267.861 87.476 270.104 86.9926C278.603 85.1605 288.123 83.1083 295.603 79.8065C300.334 77.7179 304.31 75.1058 306.701 71.6815C309.11 68.2331 309.881 64.0057 308.285 58.783C306.203 51.9563 300.374 45.5944 293.306 40.358C277.5 28.6498 257.22 22.4858 236.142 19.6221C215.06 16.758 193.146 17.1911 174.044 18.7025C173.183 18.7703 172.284 18.8054 171.384 18.8406C171.098 18.8518 170.812 18.863 170.527 18.8752C169.352 18.9256 168.197 18.9939 167.188 19.1574C166.189 19.3194 165.276 19.5826 164.625 20.0597C163.94 20.5609 163.565 21.284 163.644 22.2562L163.677 22.6703L164.092 22.6463C167.531 22.4467 171.034 22.2202 174.582 21.9907C193.063 20.7958 212.781 19.5208 231.073 21.5558C252.872 23.9812 275.619 31.3683 291.649 43.1191C296.359 46.5719 300.31 51.749 302.364 56.9726C304.425 62.2109 304.54 67.383 301.782 70.9361L301.782 70.9364C300.184 72.9975 297.72 74.6866 294.821 76.094C291.926 77.4994 288.63 78.6089 285.4 79.527C227.026 96.1097 157.616 101.275 90.9185 94.3928C69.6458 92.1958 46.4473 87.5721 27.3406 79.2825C21.8344 76.8886 16.3739 73.7277 12.3325 70.1248C8.27876 66.5108 5.7272 62.5206 5.86096 58.4663L5.86099 58.4653C5.9254 56.359 6.869 53.8883 8.26784 51.5101C9.66229 49.1392 11.4835 46.9038 13.2485 45.274L13.2488 45.2738C25.0795 34.3327 41.6901 25.9212 60.2724 19.6988C78.8503 13.4779 99.372 9.4539 119 7.27213L119.002 7.27193C137.074 5.18633 155.273 4.63075 173.429 5.61043C182.402 6.12615 191.41 7.08273 200.562 8.05471C202.057 8.21352 203.556 8.37273 205.06 8.53049L205.061 8.53057C206.099 8.63773 207.791 8.92801 209.659 9.2486C210.683 9.42427 211.76 9.60905 212.811 9.77778C214.285 10.0143 215.703 10.2181 216.829 10.3141C217.39 10.362 217.89 10.3841 218.293 10.3677C218.494 10.3595 218.681 10.3413 218.844 10.3086C219 10.2773 219.168 10.2262 219.307 10.1317L219.309 10.1297C219.82 9.77661 220.205 9.48225 220.428 9.22104C220.541 9.08923 220.649 8.92443 220.68 8.72787C220.716 8.50564 220.645 8.30983 220.522 8.15764C220.412 8.02135 220.261 7.91972 220.116 7.83887C219.965 7.75523 219.785 7.67511 219.587 7.59435C219.393 7.51543 219.154 7.42459 218.886 7.32335C218.632 7.22707 218.352 7.12137 218.065 7.0076C216.201 6.27016 213.466 5.6517 210.379 5.13305C207.285 4.61314 203.811 4.18918 200.455 3.84833C194.639 3.2575 189.165 2.91487 186.627 2.75603C186.236 2.73161 185.915 2.71153 185.673 2.69556Z" fill="#F28D00" stroke="#F28D00" stroke-width="0.85"/>
</svg>
