<svg width="175" height="52" viewBox="0 0 175 52" fill="none" xmlns="http://www.w3.org/2000/svg">
<path d="M13.6642 17.868C37.4316 5.79386 72.1365 0.640038 104.865 2.55646C105.001 2.56447 105.181 2.57453 105.4 2.58677C108.46 2.75793 119.116 3.35394 122.916 4.69803L13.6642 17.868ZM13.6642 17.868C9.42812 20.0236 5.45385 22.5099 3.36574 25.7377L13.6642 17.868ZM123.058 4.29736C120.962 3.5562 116.902 3.0482 113.166 2.70896C109.908 2.41326 106.842 2.24178 105.423 2.16239C105.205 2.15019 105.025 2.14016 104.89 2.1322L104.89 2.13219C72.1141 0.21302 37.3274 5.36996 13.4715 17.489L13.4713 17.4892C9.23459 19.645 5.16466 22.1742 3.00884 25.5067L3.00764 25.5086C1.69538 27.5606 1.21059 29.5028 1.45236 31.3292C1.6936 33.1516 2.65051 34.8003 4.11192 36.2842C7.02102 39.238 12.0154 41.6257 17.7951 43.5424C29.3763 47.383 44.3702 49.4134 52.9804 50.1736C74.546 52.1045 96.2575 52.0408 117.809 49.9835C128.133 49.0049 138.392 47.4793 148.537 45.4138L148.538 45.4136C149.677 45.1789 150.888 44.9456 152.14 44.7044C156.896 43.7882 162.244 42.7581 166.445 41.1008C169.1 40.0535 171.363 38.7326 172.734 36.9776C174.13 35.1918 174.573 32.9952 173.655 30.313C172.466 26.828 169.155 23.6153 165.193 20.9921L164.959 21.3464L165.193 20.992C156.316 15.1161 144.941 12.0296 133.136 10.5964C121.327 9.16261 109.056 9.3797 98.3631 10.1358C97.8845 10.1695 97.3857 10.1869 96.8826 10.2045C96.7221 10.2101 96.5611 10.2157 96.4002 10.2219C95.7433 10.2471 95.0894 10.2814 94.5157 10.3645C93.9521 10.4461 93.4108 10.5815 93.0122 10.8422C92.8066 10.9768 92.6273 11.1522 92.5087 11.3806C92.3888 11.6115 92.3447 11.8698 92.3696 12.1456L92.4065 12.5532L92.8152 12.532C94.7411 12.4322 96.7024 12.3188 98.6886 12.2041C109.028 11.6067 120.046 10.9701 130.266 11.9863C142.447 13.1974 155.144 16.8857 164.08 22.7403L164.313 22.3848L164.081 22.7403C166.688 24.4482 168.87 27.0069 170 29.5761C171.136 32.1577 171.171 34.6333 169.709 36.3161L169.709 36.3164C168.844 37.3138 167.495 38.1449 165.882 38.8449C164.275 39.5423 162.44 40.0945 160.637 40.5526C127.997 48.8389 89.1819 51.4211 51.8814 47.9812C39.9869 46.8834 27.0245 44.5735 16.3549 40.4366C13.2835 39.2432 10.2467 37.6707 8.00586 35.8853C5.745 34.0841 4.39519 32.1489 4.46571 30.2388L4.46575 30.2376C4.49963 29.2475 5.00099 28.0544 5.77537 26.8778C6.5436 25.7105 7.54859 24.608 8.52123 23.8054L8.52148 23.8052C15.113 18.3574 24.3807 14.1601 34.7677 11.0517C45.1493 7.94498 56.6203 5.93456 67.5945 4.84442L67.5961 4.84426C77.6988 3.80229 87.8731 3.52472 98.0228 4.01416C103.04 4.27184 108.075 4.74975 113.196 5.23574C114.033 5.31515 114.871 5.39477 115.713 5.47369L115.714 5.47375C116.29 5.5269 117.227 5.67068 118.268 5.83033C118.842 5.91837 119.448 6.01124 120.042 6.09641C120.867 6.21473 121.665 6.31731 122.3 6.36572C122.617 6.38986 122.904 6.4014 123.137 6.39287C123.254 6.38861 123.367 6.37907 123.468 6.36092C123.562 6.34403 123.68 6.31407 123.786 6.24999L123.788 6.24826C124.071 6.07372 124.308 5.91464 124.452 5.76285C124.524 5.68772 124.621 5.56698 124.651 5.40257C124.686 5.20419 124.611 5.03704 124.509 4.92407C124.421 4.8277 124.311 4.76427 124.224 4.72119C124.131 4.67497 124.023 4.6323 123.911 4.59129C123.803 4.55217 123.665 4.50519 123.512 4.45339C123.368 4.40478 123.212 4.35194 123.058 4.29736Z" fill="#F28D00" stroke="#F28D00" stroke-width="0.85"/>
</svg>
