<svg width="55" height="59" viewBox="0 0 55 59" fill="none" xmlns="http://www.w3.org/2000/svg">
<path d="M20.607 1.3107C19.653 1.46057 18.69 1.56347 17.7473 1.75807C11.7538 3.05322 6.9023 6.05956 3.4716 11.1529C2.54617 12.553 1.83671 14.081 1.36649 15.687C1.23053 16.1344 1.27585 16.5124 1.75398 16.7249C2.20717 16.9218 2.63771 16.7518 2.86884 16.2462C3.56485 14.662 4.4692 13.1751 5.55857 11.824C8.99834 7.66339 13.3332 4.93219 18.7013 3.90099C22.6237 3.14941 26.3467 3.67731 29.7684 5.79114C33.0699 7.84011 34.885 10.8397 35.4447 14.6089C35.6804 16.2585 35.6758 17.933 35.4311 19.5814C34.2437 19.7559 33.0722 19.8789 31.9233 20.1004C27.4412 20.9705 23.512 22.977 20.0156 25.8401C18.4452 27.1263 16.9429 28.4953 15.7918 30.1662C14.2282 32.4299 13.7161 34.8927 14.942 37.4584C16.0229 39.7266 18.0238 40.628 20.4688 40.6459C23.5528 40.6705 26.2153 39.4962 28.5878 37.6575C32.8411 34.3581 35.4605 29.9604 37.1442 24.9611C37.4252 24.1289 37.6404 23.2767 37.8942 22.3976C39.8783 22.6548 41.7926 23.2915 43.5297 24.2721C49.5573 27.7169 52.3082 32.9601 51.8346 39.7534C51.5151 44.3233 49.3578 48.0813 45.8614 51.0854C45.6892 51.2353 45.5057 51.3695 45.3425 51.5328C45.2401 51.6244 45.1573 51.7353 45.0989 51.8589C45.0406 51.9826 45.008 52.1166 45.0029 52.2529C44.9978 52.3892 45.0204 52.5252 45.0694 52.6528C45.1184 52.7803 45.1928 52.8969 45.2881 52.9957C45.6779 53.443 46.1945 53.5236 46.6976 53.1366C50.5203 50.2287 53.3822 46.6497 54.5515 41.9277C55.3967 38.5142 55.0183 35.1746 53.6678 31.9513C51.9026 27.7392 49.1358 24.3459 45.1182 21.9994C43.2721 20.9048 41.224 20.1832 39.0929 19.8767C38.8505 19.8431 38.6125 19.7894 38.4131 19.7559C38.4131 18.4138 38.4743 17.1052 38.4131 15.8033C38.1865 11.7188 36.8904 8.07274 33.6545 5.32811C31.162 3.22099 28.2547 2.01308 25.0257 1.52544C24.5438 1.45088 24.0611 1.37632 23.5777 1.30176L20.607 1.3107ZM34.9484 22.3081C34.9258 22.4155 34.919 22.4849 34.8986 22.552C33.3305 27.9808 30.4958 32.6022 26.0386 36.2125C23.6298 38.1653 21.067 38.5522 18.2572 37.1609C16.6596 36.3713 16.1702 35.2327 16.9316 33.6535C17.3915 32.6264 17.9948 31.6679 18.724 30.806C21.9167 27.2583 25.9275 24.8649 30.4301 23.2566C31.8841 22.7342 33.4049 22.415 34.9484 22.3081Z" fill="#F28D00"/>
<path d="M43.738 56.5212C43.738 54.479 43.7199 52.647 43.738 50.815C43.738 50.2357 43.883 49.6608 43.9465 49.0837C44.0167 48.4395 43.6791 47.9451 43.1285 47.8601C42.6413 47.7885 42.3037 48.0838 42.1405 48.7258C41.4063 51.6203 41.2114 54.5729 41.1865 57.5413C41.1865 58.5098 41.7553 59.0109 42.7297 58.9997C45.3161 58.9697 47.8945 58.7107 50.434 58.2257C51.1342 58.096 51.7936 57.8813 52.2264 57.2505C52.8065 56.3848 52.4213 55.5012 51.3744 55.4185C50.7893 55.4049 50.2046 55.4582 49.6319 55.5773C47.7103 55.8748 45.7887 56.1924 43.738 56.5212Z" fill="#F28D00"/>
</svg>
