<svg width="190" height="198" viewBox="0 0 190 198" fill="none" xmlns="http://www.w3.org/2000/svg">
<path d="M97.175 18.9382C94.5212 18.6568 91.877 18.2433 89.2214 18.0896C72.2953 17.2673 57.1911 21.839 44.3835 33.0092C40.9099 36.0922 37.921 39.6721 35.5149 43.6316C34.8314 44.731 34.6814 45.7746 35.8053 46.6849C36.8739 47.5356 38.1449 47.3888 39.1241 46.2019C42.1174 42.462 45.5969 39.1317 49.473 36.2967C61.6363 27.6281 75.1643 23.4228 90.2319 24.5039C101.24 25.2988 110.799 29.3736 118.417 37.4749C125.761 45.3168 128.456 54.6385 127.248 65.1205C126.695 69.7017 125.483 74.1774 123.648 78.4115C120.354 78.029 117.139 77.5202 113.913 77.2909C101.326 76.4128 89.4003 78.9695 78.0157 84.1274C72.9023 86.4447 67.9111 89.0319 63.641 92.6781C57.8452 97.6149 54.7132 103.836 56.1464 111.576C57.4058 118.416 62.1004 122.258 68.6137 124.055C76.8278 126.326 84.7763 125.089 92.4267 121.868C106.144 116.084 116.288 106.195 124.365 94.0264C125.711 92.0016 126.897 89.876 128.204 87.7061C133.316 89.813 137.969 92.8852 141.903 96.7506C155.523 110.276 159.107 126.268 152.974 144.1C148.846 156.095 140.395 164.604 128.909 170.139C128.342 170.417 127.756 170.645 127.203 170.965C126.864 171.137 126.564 171.374 126.319 171.663C126.075 171.952 125.892 172.287 125.781 172.648C125.669 173.009 125.632 173.389 125.672 173.765C125.711 174.142 125.826 174.507 126.01 174.839C126.729 176.314 128.051 176.899 129.671 176.224C141.958 171.18 152.163 163.653 158.668 151.859C163.37 143.333 164.754 134.13 163.459 124.542C161.767 112.013 156.814 100.957 147.772 91.8077C143.629 87.5592 138.679 84.1643 133.211 81.8203C132.588 81.5571 131.991 81.2434 131.483 81.011C132.445 77.4211 133.546 73.9646 134.316 70.4386C136.638 59.3512 135.792 48.6715 129.122 39.0158C123.979 31.5969 117.085 26.2866 108.815 22.6729C107.582 22.1288 106.348 21.5841 105.111 21.039L97.175 18.9382ZM120.406 85.3599C120.268 85.6309 120.2 85.8115 120.098 85.9765C112.021 99.3763 101.143 109.71 86.658 116.179C78.8291 119.68 71.7111 118.882 65.2083 113.151C61.5102 109.896 61.0198 106.501 64.1839 102.821C66.1476 100.403 68.4449 98.2705 71.009 96.4864C82.0738 89.2805 94.4947 85.747 107.665 84.6652C111.921 84.308 116.209 84.5419 120.406 85.3599Z" fill="#F28D00"/>
<path d="M119.346 183.16C120.81 177.697 122.074 172.784 123.436 167.897C123.851 166.347 124.65 164.913 125.233 163.415C125.882 161.742 125.335 160.178 123.927 159.557C122.678 159.017 121.565 159.565 120.669 161.166C116.635 168.383 113.999 176.142 111.805 184.064C111.11 186.654 112.269 188.401 114.878 189.068C121.803 190.838 128.871 191.989 135.997 192.508C137.959 192.662 139.873 192.559 141.48 191.182C143.649 189.281 143.254 186.642 140.519 185.672C138.967 185.217 137.368 184.941 135.754 184.85C130.412 184.272 125.055 183.747 119.346 183.16Z" fill="#F28D00"/>
</svg>
