<svg width="229" height="229" viewBox="0 0 229 229" fill="none" xmlns="http://www.w3.org/2000/svg">
<path d="M156.733 43.8125C154.527 42.2059 152.396 40.4872 150.122 38.9929C135.548 29.6077 119.83 25.9326 102.772 29.2772C98.1178 30.2318 93.6392 31.8745 89.4827 34.1513C88.3149 34.7756 87.6483 35.6234 88.1783 37.0046C88.6898 38.3047 89.8908 38.8247 91.3654 38.2741C95.9296 36.4921 100.715 35.3215 105.599 34.7926C120.807 33.3343 134.942 36.5279 147.736 45.1917C157.081 51.5261 163.465 60.0246 166.07 71.0973C168.565 81.8 166.185 91.4359 159.754 100.104C156.921 103.879 153.558 107.224 149.767 110.036C147.045 108.013 144.457 105.917 141.717 104.065C131.016 96.8492 119.144 93.0147 106.421 91.7612C100.706 91.1987 94.9611 90.9379 89.3136 91.984C81.6545 93.393 75.6981 97.3022 73.0095 104.891C70.6268 111.595 72.8204 117.399 77.6713 122.322C83.786 128.535 91.4598 131.505 99.8845 132.564C114.994 134.456 129.038 130.884 142.416 124.235C144.644 123.13 146.782 121.854 149.05 120.6C152.5 125.081 155.051 130.182 156.559 135.618C161.706 154.565 156.703 170.565 142.15 183.225C132.358 191.74 120.519 194.955 107.514 193.984C106.87 193.94 106.234 193.842 105.581 193.843C105.193 193.821 104.805 193.878 104.441 194.009C104.076 194.14 103.743 194.343 103.46 194.606C103.176 194.869 102.949 195.187 102.792 195.54C102.634 195.894 102.549 196.276 102.542 196.664C102.425 198.339 103.296 199.533 105.077 199.763C118.542 201.579 131.43 200.131 143.225 193.01C151.751 187.863 157.684 180.417 161.441 171.262C166.349 159.297 167.616 146.971 164.286 134.241C162.789 128.359 160.14 122.82 156.495 117.947C156.077 117.395 155.709 116.812 155.378 116.346C158.066 113.658 160.809 111.159 163.295 108.429C171.023 99.7954 175.735 89.9019 174.765 77.9372C174.003 68.7348 170.612 60.5047 165.135 53.0742C164.321 51.9617 163.506 50.8476 162.689 49.7321L156.733 43.8125ZM143.341 114.533C143.081 114.703 142.928 114.828 142.753 114.922C128.745 122.661 113.823 126.252 97.6836 124.574C88.9579 123.671 83.0605 119.324 80.2313 110.921C78.6199 106.147 79.922 102.888 84.6069 101.247C87.5833 100.109 90.709 99.3949 93.8928 99.1259C107.38 98.4015 120.19 101.624 132.411 107.402C136.363 109.262 140.042 111.662 143.341 114.533Z" fill="#F28D00"/>
<path d="M92.3833 200.627C96.4738 196.537 100.107 192.831 103.813 189.198C104.973 188.038 106.414 187.176 107.697 186.147C109.128 184.997 109.443 183.332 108.513 182.061C107.682 180.944 106.416 180.861 104.804 181.82C97.5393 186.151 91.2358 191.675 85.2406 197.571C83.3007 199.51 83.4339 201.651 85.4037 203.576C90.6332 208.685 96.3056 213.32 102.353 217.424C104.012 218.564 105.76 219.452 107.888 219.054C110.782 218.479 111.782 215.939 109.855 213.681C108.713 212.485 107.437 211.423 106.054 210.516C101.618 207.272 97.1407 204.067 92.3833 200.627Z" fill="#F28D00"/>
</svg>
