<svg width="145" height="42" viewBox="0 0 145 42" fill="none" xmlns="http://www.w3.org/2000/svg">
<path d="M71.9834 20.7816L72.1816 20.7411L72.384 20.7411C91.7978 20.7411 109.36 20.3617 122.055 19.7499C126.096 19.5551 129.632 19.3373 132.569 19.1021C131.939 19.0484 131.274 18.996 130.573 18.9451C122.192 18.3365 108.937 17.9568 89.5164 17.9568C70.1026 17.9568 48.2482 18.3361 31.2549 18.949C22.7544 19.2556 15.4923 19.6199 10.3668 20.0224C9.83226 20.0644 9.32285 20.1067 8.83929 20.1491C12.1691 21.0856 16.8124 22.0794 22.5167 22.817C34.9482 24.4244 52.319 24.8018 71.9834 20.7816Z" stroke="#F28D00" stroke-width="4"/>
</svg>
