<svg width="109" height="78" viewBox="0 0 109 78" fill="none" xmlns="http://www.w3.org/2000/svg">
<path d="M49.3545 41.7619L51.0105 21.6656C51.0505 21.263 51.0087 20.8564 50.8876 20.4704C50.7665 20.0844 50.5686 19.7269 50.3057 19.4193C50.0429 19.1118 49.7205 18.8606 49.3581 18.6808C48.9956 18.5011 48.6006 18.3965 48.1967 18.3734C47.7928 18.3503 47.3883 18.4091 47.0077 18.5463C46.6271 18.6835 46.2782 18.8963 45.982 19.1718C45.6857 19.4473 45.4483 19.78 45.284 20.1497C45.1196 20.5193 45.0317 20.9184 45.0255 21.323L43.3664 41.4288C43.3323 41.8288 43.3787 42.2315 43.5031 42.6132C43.6274 42.9949 43.8271 43.3478 44.0903 43.6509C44.3535 43.9541 44.6749 44.2013 45.0353 44.378C45.3958 44.5546 45.7881 44.6571 46.1889 44.6794C46.5897 44.7017 46.991 44.6434 47.3688 44.5078C47.7467 44.3722 48.0934 44.1621 48.3886 43.8901C48.6838 43.618 48.9214 43.2895 49.0873 42.9239C49.2532 42.5583 49.3441 42.1632 49.3545 41.7619Z" fill="#F28D00"/>
<path d="M32.468 43.4477C26.4447 36.4082 19.6629 30.0549 12.2458 24.5031C11.9204 24.2627 11.5497 24.0907 11.156 23.9973C10.7624 23.9039 10.3539 23.8912 9.95522 23.9597C9.5565 24.0283 9.17573 24.1768 8.83589 24.3963C8.49605 24.6158 8.20416 24.9018 7.9777 25.2371C7.75124 25.5724 7.59492 25.9499 7.51817 26.3472C7.44142 26.7444 7.44581 27.1531 7.53107 27.5486C7.61632 27.944 7.78067 28.3182 8.01427 28.6485C8.24787 28.9788 8.54584 29.2585 8.89032 29.4707C15.8726 34.7231 22.2547 40.7291 27.9212 47.3798C30.4364 50.34 34.9612 46.3794 32.4206 43.4318L32.468 43.4477Z" fill="#F28D00"/>
<path d="M95.2292 60.0689C91.5363 59.0648 87.8401 58.1018 84.0763 57.4642C80.486 56.8979 76.8635 56.5596 73.2304 56.4513C72.8304 56.4171 72.4277 56.4636 72.046 56.5879C71.6643 56.7123 71.3114 56.912 71.0082 57.1752C70.7051 57.4384 70.4579 57.7597 70.2812 58.1202C70.1046 58.4807 70.002 58.8729 69.9797 59.2738C69.9574 59.6746 70.0158 60.0758 70.1514 60.4537C70.287 60.8315 70.497 61.1783 70.7691 61.4735C71.0412 61.7687 71.3697 62.0063 71.7353 62.1722C72.1008 62.3381 72.4959 62.429 72.8973 62.4394C76.4446 62.5558 79.9819 62.8831 83.4904 63.4197L84.6186 63.6106C85.1052 63.7011 84.192 63.5299 84.6754 63.6298L85.2568 63.7522C86.0467 63.9134 86.8398 64.0968 87.6296 64.2896C89.5821 64.7588 91.449 65.2626 93.3444 65.7759C94.0986 66.0117 94.9148 65.9477 95.623 65.597C96.3312 65.2463 96.8768 64.6361 97.1465 63.8932C97.401 63.1394 97.3457 62.3153 96.9926 61.6023C96.6395 60.8893 96.0177 60.3457 95.2638 60.0912L95.2292 60.0689Z" fill="#F28D00"/>
<path d="M64.9106 49.8316C69.3048 43.848 75.1366 39.0688 81.8669 35.9358C82.5509 35.5665 83.0649 34.9461 83.3005 34.2053C83.5362 33.4646 83.4751 32.6613 83.1302 31.9647C82.7853 31.2681 82.1834 30.7326 81.4514 30.4709C80.7194 30.2093 79.9145 30.242 79.2062 30.5622C71.5523 34.1676 64.928 39.6401 59.9429 46.4761C59.497 47.1345 59.3308 47.943 59.4808 48.7239C59.6307 49.5049 60.0846 50.1943 60.7427 50.6408C61.4078 51.0688 62.2125 51.2235 62.989 51.0728C63.7655 50.922 64.4539 50.4774 64.9106 49.8316Z" fill="#F28D00"/>
</svg>
