<svg width="95" height="217" viewBox="0 0 95 217" fill="none" xmlns="http://www.w3.org/2000/svg">
<path d="M109.959 7.1317C110.102 10.7807 107.441 13.9862 103.745 14.4689C90.4513 16.1813 70.8644 21.3832 52.9643 36.3778C44.4551 43.5014 16.8582 69.9621 18.4761 111.329L18.4796 111.418C18.552 113.269 20.7212 156.86 57.7387 182.658C76.633 195.827 96.4647 198.709 109.757 198.797C113.705 198.821 116.865 201.961 116.843 205.972C116.818 209.913 113.602 213.069 109.653 213.045C94.3238 212.929 71.4737 209.594 49.5682 194.332C7.51941 165.023 4.42177 117.331 4.21223 111.974L4.20805 111.867C2.33679 64.021 34.0306 33.6214 43.7849 25.451C64.3307 8.23194 86.7289 2.29647 101.906 0.332526C105.815 -0.176338 109.389 2.59023 109.898 6.4923C109.925 6.7052 109.951 6.91811 109.959 7.1317Z" fill="#F28D00"/>
</svg>
