<svg width="126" height="114" viewBox="0 0 126 114" fill="none" xmlns="http://www.w3.org/2000/svg">
<path d="M59.408 61.782L52.1136 42.9832C51.9736 42.6036 51.7583 42.2563 51.4807 41.962C51.203 41.6677 50.8687 41.4327 50.4979 41.271C50.1271 41.1092 49.7273 41.0242 49.3228 41.0209C48.9182 41.0177 48.5172 41.0963 48.1438 41.2521C47.7704 41.4078 47.4324 41.6375 47.15 41.9272C46.8677 42.217 46.6469 42.5609 46.5009 42.9382C46.3548 43.3155 46.2867 43.7184 46.3005 44.1228C46.3142 44.5271 46.4096 44.9245 46.5808 45.291L53.8766 64.0997C54.0207 64.4744 54.2386 64.8164 54.5172 65.1054C54.7959 65.3943 55.1297 65.6244 55.4989 65.782C55.8682 65.9396 56.2653 66.0215 56.6667 66.0229C57.0682 66.0242 57.4658 65.9449 57.836 65.7898C58.2063 65.6347 58.5417 65.4068 58.8222 65.1197C59.1028 64.8326 59.3229 64.4921 59.4695 64.1183C59.6161 63.7446 59.6862 63.3453 59.6756 62.944C59.6651 62.5427 59.5741 62.1475 59.408 61.782Z" fill="#F28D00"/>
<path d="M44.9566 70.6799C36.4622 66.9811 27.5856 64.231 18.4879 62.4796C18.0902 62.4056 17.6815 62.4129 17.2867 62.501C16.8918 62.5891 16.5189 62.7561 16.1902 62.9921C15.8616 63.228 15.584 63.528 15.3743 63.874C15.1646 64.22 15.0271 64.6048 14.9699 65.0053C14.9128 65.4058 14.9372 65.8138 15.0418 66.2046C15.1464 66.5954 15.329 66.9611 15.5785 67.2795C15.8281 67.5979 16.1394 67.8626 16.4939 68.0576C16.8484 68.2526 17.2386 68.3739 17.6412 68.4142C26.2169 70.0865 34.5823 72.6988 42.5858 76.2039C46.1418 77.767 48.4804 72.2269 44.907 70.6862L44.9566 70.6799Z" fill="#F28D00"/>
<path d="M108.67 58.1971C104.91 58.9081 101.164 59.6575 97.5004 60.7292C94.0237 61.7891 90.6177 63.0682 87.3027 64.5588C86.928 64.7029 86.5861 64.9207 86.2971 65.1994C86.0081 65.478 85.778 65.8119 85.6204 66.1811C85.4628 66.5503 85.3809 66.9474 85.3796 67.3488C85.3783 67.7503 85.4575 68.1479 85.6126 68.5182C85.7678 68.8885 85.9956 69.2238 86.2828 69.5044C86.5699 69.785 86.9104 70.0051 87.2841 70.1517C87.6578 70.2983 88.0572 70.3684 88.4585 70.3578C88.8598 70.3472 89.2549 70.2563 89.6204 70.0902C92.8618 68.6444 96.1864 67.3927 99.5765 66.3418L100.675 66.0204C101.152 65.889 100.256 66.1343 100.734 66.0128L101.311 65.8688C102.092 65.6685 102.885 65.4868 103.68 65.3149C105.641 64.8836 107.54 64.5207 109.469 64.1539C110.251 64.0364 110.957 63.622 111.44 62.9971C111.924 62.3721 112.148 61.5848 112.066 60.7988C111.965 60.0095 111.556 59.2925 110.926 58.8055C110.297 58.3185 109.5 58.1015 108.711 58.202L108.67 58.1971Z" fill="#F28D00"/>
<path d="M76.9266 62.2417C78.2635 54.9393 81.4199 48.0917 86.1038 42.3321C86.5576 41.701 86.7487 40.9184 86.6369 40.1491C86.525 39.3799 86.119 38.6841 85.5043 38.2083C84.8896 37.7325 84.1142 37.5139 83.3415 37.5986C82.5688 37.6832 81.8591 38.0645 81.3619 38.662C76.0538 45.2502 72.4877 53.0677 70.992 61.395C70.8787 62.1821 71.0826 62.9819 71.5588 63.6187C72.035 64.2556 72.7446 64.6773 73.5316 64.7912C74.317 64.8855 75.1084 64.6729 75.7409 64.1979C76.3734 63.723 76.7981 63.0222 76.9266 62.2417Z" fill="#F28D00"/>
</svg>
