<svg width="59" height="55" viewBox="0 0 59 55" fill="none" xmlns="http://www.w3.org/2000/svg">
<path d="M37.9211 41.3636C37.8909 40.6387 37.84 39.9136 37.8441 39.1902C37.8449 38.9992 37.9702 38.7651 38.1146 38.6324C39.3544 37.4859 40.6109 36.3577 41.8635 35.225C41.9776 35.1221 42.0958 35.0237 42.1964 34.8248C42.0313 34.8359 41.8645 34.8385 41.7006 34.859C39.3376 35.157 36.9832 35.5255 34.6106 35.7266C33.5379 35.818 32.4206 35.6492 31.3435 35.4715C30.2715 35.2944 29.7006 34.4767 29.6297 33.4756C29.5471 32.3032 29.5651 31.1083 29.7036 29.9453C30.0017 27.4444 30.5877 25.0001 31.3352 22.5985C31.3826 22.4463 31.3855 22.2802 31.3134 22.0752C31.0255 22.3863 30.7221 22.6842 30.4528 23.0105C28.6506 25.1881 26.7083 27.2311 24.4709 28.9757C23.725 29.5569 22.9176 30.0627 21.9535 30.2673C21.2328 30.42 20.6282 30.1688 20.0429 29.7932C19.0473 29.1539 18.6014 28.118 18.0564 27.1475C16.8986 25.0834 16.3126 22.8248 15.645 20.5921C15.5976 20.4335 15.5459 20.2747 15.3861 20.1136C15.3044 20.5546 15.2411 20.9997 15.1394 21.4356C14.834 22.7474 14.5161 24.0562 14.1981 25.3651C14.0148 26.1205 13.4949 26.6514 12.9625 27.1698C12.8719 27.2584 12.7268 27.2918 12.6982 27.3054C12.5081 27.0376 12.3142 26.8407 12.2167 26.6059C12.1349 26.4082 12.0781 26.1238 12.1617 25.9505C13.2197 23.7465 13.5332 21.3555 13.8231 18.9692C14.0285 17.2772 14.0865 15.5656 14.2264 13.8636C14.2539 13.5279 14.1487 13.3747 13.8258 13.2345C12.7898 12.7847 12.0972 12.0301 11.9512 10.8802C11.807 9.73683 12.0821 8.74299 13.0447 8.03105C14.1195 7.2366 16.1287 7.42036 17.1522 8.42841C17.9107 9.17495 18.4361 10.0524 18.5396 11.1336C18.5669 11.4236 18.4963 11.6086 18.2471 11.8013C17.9622 12.0218 17.8096 12.4132 17.5194 12.622C17.1237 12.9075 16.6659 13.126 16.2073 13.3063C15.9144 13.4211 15.8126 13.5386 15.8892 13.8495C16.4856 16.2948 17.0387 18.7506 17.6744 21.1864C18.0219 22.516 18.4345 23.8391 18.952 25.1131C19.3378 26.0616 19.9024 26.9488 20.4582 27.8191C20.9503 28.5893 21.4509 28.7514 22.207 28.274C23.2251 27.6307 24.2503 26.9431 25.0943 26.0992C26.7812 24.4131 28.3784 22.6343 29.9526 20.8422C30.9427 19.7149 31.8166 18.4874 32.7546 17.3139C33.0182 16.9844 33.005 16.7209 32.7519 16.3651C31.9485 15.2357 31.985 13.6353 32.8728 12.6813C33.6463 11.8516 34.666 11.5941 35.7931 11.7782C36.9482 11.9666 37.6838 12.643 38.3022 13.6418C38.7459 14.3593 38.8864 14.9727 38.616 15.7122C38.3021 16.5686 37.6676 17.1387 36.8375 17.4487C36.3223 17.6416 35.7509 17.7385 35.1966 17.7679C34.7979 17.7894 34.6175 17.8895 34.5051 18.2719C33.9058 20.3107 33.2307 22.3273 32.6739 24.3778C31.9866 26.9045 31.3404 29.4474 31.2024 32.088C31.1812 32.4886 31.231 32.897 31.2783 33.2984C31.3203 33.656 31.508 33.873 31.9062 33.9491C33.4616 34.2461 35.0071 34.0997 36.5496 33.9376C39.8944 33.5861 43.18 32.924 46.4411 32.1488C46.8523 32.0508 47.0186 32.1608 47.1246 32.5306C47.2149 32.8461 47.3704 33.1455 47.4373 33.4637C47.4635 33.5907 47.3674 33.8255 47.2584 33.8798C45.4981 34.7602 43.8284 35.7832 42.2859 36.9936C40.9776 38.0199 39.7617 39.1479 38.7949 40.5154C38.5695 40.8337 38.2843 41.1098 38.0263 41.405L37.9228 41.3624L37.9211 41.3636ZM15.8629 9.28722C15.7849 9.25183 15.6171 9.16142 15.4395 9.09758C14.7606 8.85185 13.9744 9.07429 13.6316 9.59995C12.9309 10.6771 13.6984 11.9729 15.1018 12.0821C15.8241 12.1389 16.8164 11.6484 16.9774 11.1554C17.1505 10.6263 16.6556 9.74915 15.8629 9.28722ZM34.547 16.1693C35.5438 16.833 36.6995 16.0368 37.1779 15.284C37.4108 14.9185 36.8393 13.7703 36.3009 13.4745C35.4589 13.011 34.2704 13.2517 33.8736 13.9655C33.4918 14.6515 33.8325 15.7654 34.547 16.1693Z" fill="#F28D00"/>
<path d="M22.2222 36.9041C21.7792 36.7957 21.3039 36.7546 20.8986 36.5657C19.069 35.7126 17.3113 34.6742 15.4271 33.9799C13.5637 33.2933 11.6555 32.6216 9.63542 32.4983C9.56039 32.4937 9.48444 32.4982 9.27553 32.498C9.40389 32.7098 9.46561 32.8701 9.57669 32.9848C10.8217 34.2649 12.3023 35.2638 13.8472 36.1041C17.1051 37.8764 20.4106 39.5699 23.7534 41.1762C25.7817 42.1515 27.8935 42.9708 30.0113 43.7344C31.5614 44.2928 33.1781 44.6692 34.7764 45.0834C35.522 45.2763 35.671 45.0806 35.4213 44.3494C35.1362 43.5181 34.6258 42.8213 34.0105 42.1983C32.6537 40.8237 31.1425 39.6275 29.5196 38.5926C27.4572 37.2783 25.3922 35.9495 23.2289 34.8156C21.1359 33.719 18.9371 32.8173 16.7487 31.9183C15.353 31.3447 13.9136 30.8448 12.4544 30.4722C10.6292 30.0055 8.76363 29.7037 6.91676 29.3277C6.36575 29.2149 5.81517 29.0938 5.26808 28.9629C5.19417 28.9449 5.0781 28.8446 5.0845 28.7956C5.09807 28.683 5.1453 28.5178 5.22886 28.4811C6.03596 28.1181 6.85605 27.6056 7.76846 27.826C10.3838 28.4575 13.0226 29.0445 15.5723 29.894C20.2394 31.4488 24.7159 33.4645 28.8294 36.2093C30.2326 37.1453 31.6607 38.0665 32.9507 39.1436C34.421 40.3709 35.8707 41.6584 36.8399 43.3556C37.1747 43.9413 37.3414 44.5644 37.2602 45.2433C37.1452 46.2027 36.5611 46.8256 35.5833 46.7622C34.4631 46.6895 33.3132 46.5848 32.2447 46.2614C30.0918 45.6098 27.9404 44.9064 25.8697 44.0291C23.2278 42.9092 20.6507 41.6277 18.076 40.3552C16.3075 39.4815 14.5485 38.5724 12.8618 37.5512C11.3944 36.6621 10.0172 35.6186 8.6351 34.5948C8.00795 34.1306 7.53772 33.514 7.4499 32.688C7.34482 31.7005 7.89415 30.9898 8.89 30.8723C10.18 30.7192 11.4267 31.024 12.6573 31.3528C15.2083 32.0332 17.6662 32.9695 19.9863 34.2488C20.539 34.5539 21.0904 34.8669 21.6096 35.2225C21.9687 35.4686 22.3234 35.7583 22.1013 36.3042C22.058 36.4115 22.2113 36.5989 22.2731 36.7496L22.2217 36.9049L22.2222 36.9041Z" fill="#F28D00"/>
<path d="M53.2224 33.421C52.3395 34.8574 50.779 35.2876 49.4405 34.4632C47.8329 33.4738 47.2449 31.5903 48.1079 30.194C49.0209 28.7169 50.9446 28.2889 52.4731 29.2219C53.6915 29.9662 54.0638 32.0509 53.2216 33.4205L53.2224 33.421ZM49.9913 33.2135C50.792 33.6597 51.5526 33.4548 51.9859 32.6759C52.4382 31.864 52.1765 30.7764 51.4322 30.3747C50.7098 29.9844 49.8293 30.2642 49.4307 31.0115C49.0528 31.7191 49.3414 32.8512 49.9909 33.2122L49.9913 33.2135Z" fill="#F28D00"/>
</svg>
