<svg width="86" height="86" viewBox="0 0 86 86" fill="none" xmlns="http://www.w3.org/2000/svg">
<path d="M81.2385 49.1126C80.9922 50.3047 80.8339 51.5187 80.4754 52.6779C80.0558 53.9531 79.5578 55.2015 78.9844 56.4161C78.5842 57.291 77.7375 57.5776 76.97 57.2013C76.2025 56.8251 75.9078 55.9852 76.3543 55.1387C77.8453 52.3105 78.3335 49.2985 78.3027 46.1335C78.2433 39.9652 78.3027 33.7948 78.2807 27.6265C78.2807 25.507 76.3609 24.094 74.4102 24.7305C73.8301 24.9132 73.3226 25.2728 72.9594 25.7584C72.5963 26.2441 72.3961 26.8311 72.387 27.4362C72.368 31.5003 72.368 35.5636 72.387 39.6262C72.3976 39.7504 72.433 39.8713 72.4912 39.9817C72.5493 40.0921 72.629 40.1899 72.7257 40.2692C75.9342 42.7081 76.2289 46.6606 73.3854 49.5019C71.0104 51.8818 68.6265 54.2535 66.2339 56.6173C65.5917 57.256 64.9518 57.4026 64.3162 57.081C63.3816 56.6086 63.2321 55.4908 64.0282 54.675C65.1783 53.4982 66.3548 52.3498 67.5204 51.1906C68.7893 49.9263 70.067 48.6664 71.3293 47.3977C72.6487 46.07 72.7147 44.2917 71.5074 43.08C70.3001 41.8682 68.5034 41.925 67.1663 43.2265C66.3768 43.9964 65.5895 44.7729 64.8176 45.5626C61.6619 48.7998 57.6749 50.355 53.3118 51.0024C50.0285 51.488 47.8624 53.7366 47.858 57.0329C47.8492 62.615 47.8492 68.197 47.858 73.7791V74.479H60.5667V73.685C60.5667 71.5808 60.5667 69.4744 60.5667 67.3702C60.5442 67.0527 60.6197 66.7359 60.7832 66.4622C60.9467 66.1886 61.1904 65.9711 61.4816 65.8391C63.3068 64.9335 65.1233 64.0083 66.953 63.1159C67.7821 62.7134 68.5979 62.9715 68.9872 63.6977C69.3764 64.4239 69.1235 65.2923 68.2725 65.7319C66.9002 66.4428 65.517 67.1405 64.1161 67.7946C63.6389 68.0133 63.507 68.2998 63.5136 68.8007C63.5378 71.0755 63.5268 73.3525 63.5136 75.6296C63.5136 76.9748 63.0012 77.4778 61.6267 77.4778H46.7914C45.4257 77.4778 44.9111 76.9704 44.9111 75.623C44.9111 69.4795 44.9111 63.3346 44.9111 57.1882C44.9111 52.2361 48.0911 48.7933 53.0303 48.0824C56.7688 47.5465 60.1995 46.2078 62.8736 43.3731C63.5333 42.6775 64.2459 42.0388 64.9012 41.3432C65.4732 40.7088 66.1695 40.1975 66.9474 39.8405C67.7253 39.4835 68.5684 39.2885 69.4248 39.2675V38.4691C69.4248 34.7725 69.4006 31.0759 69.4358 27.3793C69.4654 26.0476 69.9502 24.7656 70.8102 23.7444C71.6703 22.7233 72.8544 22.024 74.1674 21.7617C75.4805 21.4994 76.8442 21.6897 78.034 22.3013C79.2237 22.9129 80.1686 23.9093 80.7129 25.1264C80.9329 25.612 81.0648 26.1326 81.2385 26.6356V49.1126Z" fill="#33706B"/>
<path d="M17.4419 39.2609C19.5421 39.2893 21.0353 40.3545 22.4032 41.7435C23.8216 43.1937 25.1345 44.7729 26.984 45.7507C29.3451 47.0216 31.9163 47.861 34.5754 48.2289C38.5888 48.7626 41.8567 52.2667 41.9182 56.322C42.0128 62.8578 41.9556 69.3957 41.949 75.9336C41.949 76.8916 41.3377 77.4647 40.3525 77.4647C35.2329 77.4735 30.1133 77.4735 24.9938 77.4647C23.9294 77.4647 23.3576 76.8851 23.3532 75.8198C23.3532 73.4444 23.3356 71.069 23.3532 68.6957C23.3746 68.507 23.3316 68.3166 23.2311 68.1552C23.1306 67.9937 22.9784 67.8705 22.799 67.8055C20.2766 66.5521 17.6839 65.4126 15.2648 63.982C9.06767 60.327 5.80856 54.8193 5.67002 47.6624C5.53587 41.0042 5.63263 34.3438 5.64363 27.6834C5.64363 24.269 8.2342 21.642 11.5505 21.6442C14.8668 21.6464 17.4398 24.269 17.4507 27.6921C17.4639 31.2684 17.4507 34.8425 17.4507 38.41L17.4419 39.2609ZM26.3022 74.4768H38.989C38.989 68.4048 39.0462 62.3853 38.9626 56.3658C38.9274 53.7716 36.8514 51.6455 34.2653 51.1381C33.0118 50.8909 31.7583 50.6306 30.5268 50.2631C27.4172 49.3423 24.4462 48.1546 22.1701 45.7004C21.3036 44.7664 20.3976 43.8608 19.4498 43.01C19.0695 42.6483 18.5982 42.3952 18.0856 42.2775C17.5729 42.1597 17.0378 42.1815 16.5366 42.3407C16.0354 42.4999 15.5866 42.7905 15.2374 43.1819C14.8882 43.5734 14.6515 44.0512 14.5523 44.5652C14.3082 45.696 14.7326 46.6169 15.5375 47.4087C17.9609 49.8089 20.38 52.215 22.7946 54.6268C23.5093 55.3421 23.5269 56.2258 22.8848 56.8339C22.2822 57.4048 21.3916 57.3654 20.7143 56.6939C18.2204 54.2244 15.7112 51.7702 13.257 49.257C10.6554 46.5994 11.0403 42.5331 14.0267 40.3217C14.1501 40.2239 14.2527 40.1025 14.3282 39.9646C14.4037 39.8267 14.4508 39.6752 14.4665 39.519C14.4944 35.5293 14.4995 31.5396 14.4819 27.5499C14.4927 27.1582 14.4244 26.7682 14.2811 26.4031C14.1378 26.038 13.9224 25.7052 13.6475 25.4243C13.3727 25.1434 13.0441 24.9201 12.6811 24.7677C12.3181 24.6152 11.928 24.5367 11.534 24.5367C11.1399 24.5367 10.7499 24.6152 10.3869 24.7677C10.0239 24.9201 9.69524 25.1434 9.42043 25.4243C9.14563 25.7052 8.93021 26.038 8.7869 26.4031C8.64359 26.7682 8.5753 27.1582 8.58606 27.5499C8.57507 34.3044 8.46731 41.0632 8.62125 47.8155C8.76199 53.9794 11.7 58.6428 17.1165 61.6438C19.6697 63.0568 22.3196 64.2992 24.952 65.5635C25.9152 66.025 26.3506 66.644 26.3198 67.7311C26.2604 69.9666 26.3022 72.1976 26.3022 74.4768Z" fill="#33706B"/>
<path d="M43.4464 12.0943C44.9176 10.1257 46.5867 8.57709 48.8035 7.68904C52.8916 6.05292 59.643 6.74849 63.056 12.8161C66.1348 18.3063 65.7323 23.7528 62.4161 29.0023C60.5402 31.9749 58.042 34.4182 55.4294 36.7302C51.8625 39.8865 48.2273 42.964 44.6163 46.0679C43.7938 46.7765 43.1319 46.8225 42.3776 46.1663C37.9794 42.3319 33.5305 38.5347 29.2026 34.6128C26.667 32.314 24.4459 29.6935 23.1023 26.4979C20.7844 20.988 21.343 15.78 25.0661 11.0247C28.7892 6.26946 37.5857 4.84333 42.6591 11.1275C42.901 11.4316 43.1473 11.729 43.4464 12.0943ZM43.4464 43.2134C48.1151 39.0925 53.0236 35.3718 57.1887 30.8463C58.4318 29.5247 59.5193 28.0666 60.4303 26.5C62.7305 22.4251 62.8493 18.2604 60.4303 14.1526C57.666 9.45858 50.3407 7.86621 46.2613 13.2777C45.7767 13.9242 45.3261 14.5951 44.911 15.2878C44.049 16.7183 42.8328 16.7249 41.962 15.3184C41.438 14.4363 40.85 13.5934 40.2027 12.7964C36.4752 8.37805 30.6695 9.54608 27.9403 12.2955C25.1518 15.1063 24.2964 18.5338 24.9077 22.3572C25.3872 25.3604 26.9969 27.8081 28.9541 30.0566C31.6723 33.1758 34.8346 35.8268 37.9706 38.515C39.7563 40.0724 41.5705 41.6101 43.4508 43.2134H43.4464Z" fill="#33706B"/>
<path d="M73.41 62.4772C73.1175 62.4767 72.8318 62.3894 72.5894 62.2267C72.3471 62.0639 72.1589 61.833 72.0491 61.5634C71.9393 61.2938 71.9127 60.9978 71.9728 60.7131C72.0329 60.4284 72.177 60.168 72.3866 59.9651C72.5962 59.7623 72.8618 59.6261 73.1495 59.5741C73.4373 59.5221 73.7341 59.5566 74.002 59.6731C74.27 59.7896 74.497 59.983 74.6539 60.2284C74.8109 60.4738 74.8908 60.7602 74.8834 61.051C74.8698 61.4318 74.709 61.7926 74.4345 62.0583C74.16 62.324 73.793 62.474 73.41 62.4772V62.4772Z" fill="#33706B"/>
<path d="M52.0456 38.5653L43.5636 43.2746L27.3912 30.7172L23.248 20.3186L25.8122 12.4727L34.0963 8.54865L44.9446 15.2178L47.9047 9.92229L58.555 9.52857L64.8665 18.1619L63.0918 23.4596L52.0456 38.5653Z" fill="#33706B"/>
<path d="M81.2385 49.1126C80.9922 50.3047 80.8339 51.5187 80.4754 52.6779C80.0558 53.9531 79.5578 55.2015 78.9844 56.4161C78.5842 57.291 77.7375 57.5776 76.97 57.2013C76.2025 56.8251 75.9078 55.9852 76.3543 55.1387C77.8453 52.3105 78.3335 49.2985 78.3027 46.1335C78.2433 39.9652 78.3027 33.7948 78.2807 27.6265C78.2807 25.507 76.3609 24.094 74.4102 24.7305C73.8301 24.9132 73.3226 25.2728 72.9594 25.7584C72.5963 26.2441 72.3961 26.8311 72.387 27.4362C72.368 31.5003 72.368 35.5636 72.387 39.6262C72.3976 39.7504 72.433 39.8713 72.4912 39.9817C72.5493 40.0921 72.629 40.1899 72.7257 40.2692C75.9342 42.7081 76.2289 46.6606 73.3854 49.5019C71.0104 51.8818 68.6265 54.2535 66.2339 56.6173C65.5917 57.256 64.9518 57.4026 64.3162 57.081C63.3816 56.6086 63.2321 55.4908 64.0282 54.675C65.1783 53.4982 66.3548 52.3498 67.5204 51.1906C68.7893 49.9263 70.067 48.6664 71.3293 47.3977C72.6487 46.07 72.7147 44.2917 71.5074 43.08C70.3001 41.8682 68.5034 41.925 67.1663 43.2265C66.3768 43.9964 65.5895 44.7729 64.8176 45.5626C61.6619 48.7998 57.6749 50.355 53.3118 51.0024C50.0285 51.488 47.8624 53.7366 47.858 57.0329C47.8492 62.615 47.8492 68.197 47.858 73.7791V74.479H60.5667V73.685C60.5667 71.5808 60.5667 69.4744 60.5667 67.3702C60.5442 67.0527 60.6197 66.7359 60.7832 66.4622C60.9467 66.1886 61.1904 65.9711 61.4816 65.8391C63.3068 64.9335 65.1233 64.0083 66.953 63.1159C67.7821 62.7134 68.5979 62.9715 68.9872 63.6977C69.3764 64.4239 69.1235 65.2923 68.2725 65.7319C66.9002 66.4428 65.517 67.1405 64.1161 67.7946C63.6389 68.0133 63.507 68.2998 63.5136 68.8007C63.5378 71.0755 63.5268 73.3525 63.5136 75.6296C63.5136 76.9748 63.0012 77.4778 61.6267 77.4778H46.7914C45.4257 77.4778 44.9111 76.9704 44.9111 75.623C44.9111 69.4795 44.9111 63.3346 44.9111 57.1882C44.9111 52.2361 48.0911 48.7933 53.0303 48.0824C56.7688 47.5465 60.1995 46.2078 62.8736 43.3731C63.5333 42.6775 64.2459 42.0388 64.9012 41.3432C65.4732 40.7088 66.1695 40.1975 66.9474 39.8405C67.7253 39.4835 68.5684 39.2885 69.4248 39.2675V38.4691C69.4248 34.7725 69.4006 31.0759 69.4358 27.3793C69.4654 26.0476 69.9502 24.7656 70.8102 23.7444C71.6703 22.7233 72.8544 22.024 74.1674 21.7617C75.4805 21.4994 76.8442 21.6897 78.034 22.3013C79.2237 22.9129 80.1686 23.9093 80.7129 25.1264C80.9329 25.612 81.0648 26.1326 81.2385 26.6356V49.1126Z" fill="#33706B"/>
<path d="M17.4419 39.2609C19.5421 39.2893 21.0353 40.3545 22.4032 41.7435C23.8216 43.1937 25.1345 44.7729 26.984 45.7507C29.3451 47.0216 31.9163 47.861 34.5754 48.2289C38.5888 48.7626 41.8567 52.2667 41.9182 56.322C42.0128 62.8578 41.9556 69.3957 41.949 75.9336C41.949 76.8916 41.3377 77.4647 40.3525 77.4647C35.2329 77.4735 30.1133 77.4735 24.9938 77.4647C23.9294 77.4647 23.3576 76.8851 23.3532 75.8198C23.3532 73.4444 23.3356 71.069 23.3532 68.6957C23.3746 68.507 23.3316 68.3166 23.2311 68.1552C23.1306 67.9937 22.9784 67.8705 22.799 67.8055C20.2766 66.5521 17.6839 65.4126 15.2648 63.982C9.06767 60.327 5.80856 54.8193 5.67002 47.6624C5.53587 41.0042 5.63263 34.3438 5.64363 27.6834C5.64363 24.269 8.2342 21.642 11.5505 21.6442C14.8668 21.6464 17.4398 24.269 17.4507 27.6921C17.4639 31.2684 17.4507 34.8425 17.4507 38.41L17.4419 39.2609ZM26.3022 74.4768H38.989C38.989 68.4048 39.0462 62.3853 38.9626 56.3658C38.9274 53.7716 36.8514 51.6455 34.2653 51.1381C33.0118 50.8909 31.7583 50.6306 30.5268 50.2631C27.4172 49.3423 24.4462 48.1546 22.1701 45.7004C21.3036 44.7664 20.3976 43.8608 19.4498 43.01C19.0695 42.6483 18.5982 42.3952 18.0856 42.2775C17.5729 42.1597 17.0378 42.1815 16.5366 42.3407C16.0354 42.4999 15.5866 42.7905 15.2374 43.1819C14.8882 43.5734 14.6515 44.0512 14.5523 44.5652C14.3082 45.696 14.7326 46.6169 15.5375 47.4087C17.9609 49.8089 20.38 52.215 22.7946 54.6268C23.5093 55.3421 23.5269 56.2258 22.8848 56.8339C22.2822 57.4048 21.3916 57.3654 20.7143 56.6939C18.2204 54.2244 15.7112 51.7702 13.257 49.257C10.6554 46.5994 11.0403 42.5331 14.0267 40.3217C14.1501 40.2239 14.2527 40.1025 14.3282 39.9646C14.4037 39.8267 14.4508 39.6752 14.4665 39.519C14.4944 35.5293 14.4995 31.5396 14.4819 27.5499C14.4927 27.1582 14.4244 26.7682 14.2811 26.4031C14.1378 26.038 13.9224 25.7052 13.6475 25.4243C13.3727 25.1434 13.0441 24.9201 12.6811 24.7677C12.3181 24.6152 11.928 24.5367 11.534 24.5367C11.1399 24.5367 10.7499 24.6152 10.3869 24.7677C10.0239 24.9201 9.69524 25.1434 9.42043 25.4243C9.14563 25.7052 8.93021 26.038 8.7869 26.4031C8.64359 26.7682 8.5753 27.1582 8.58606 27.5499C8.57507 34.3044 8.46731 41.0632 8.62125 47.8155C8.76199 53.9794 11.7 58.6428 17.1165 61.6438C19.6697 63.0568 22.3196 64.2992 24.952 65.5635C25.9152 66.025 26.3506 66.644 26.3198 67.7311C26.2604 69.9666 26.3022 72.1976 26.3022 74.4768Z" fill="#33706B"/>
<path d="M43.4464 12.0943C44.9176 10.1257 46.5867 8.57709 48.8035 7.68904C52.8916 6.05292 59.643 6.74849 63.056 12.8161C66.1348 18.3063 65.7323 23.7528 62.4161 29.0023C60.5402 31.9749 58.042 34.4182 55.4294 36.7302C51.8625 39.8865 48.2273 42.964 44.6163 46.0679C43.7938 46.7765 43.1319 46.8225 42.3776 46.1663C37.9794 42.3319 33.5305 38.5347 29.2026 34.6128C26.667 32.314 24.4459 29.6935 23.1023 26.4979C20.7844 20.988 21.343 15.78 25.0661 11.0247C28.7892 6.26946 37.5857 4.84333 42.6591 11.1275C42.901 11.4316 43.1473 11.729 43.4464 12.0943ZM43.4464 43.2134C48.1151 39.0925 53.0236 35.3718 57.1887 30.8463C58.4318 29.5247 59.5193 28.0666 60.4303 26.5C62.7305 22.4251 62.8493 18.2604 60.4303 14.1526C57.666 9.45858 50.3407 7.86621 46.2613 13.2777C45.7767 13.9242 45.3261 14.5951 44.911 15.2878C44.049 16.7183 42.8328 16.7249 41.962 15.3184C41.438 14.4363 40.85 13.5934 40.2027 12.7964C36.4752 8.37805 30.6695 9.54608 27.9403 12.2955C25.1518 15.1063 24.2964 18.5338 24.9077 22.3572C25.3872 25.3604 26.9969 27.8081 28.9541 30.0566C31.6723 33.1758 34.8346 35.8268 37.9706 38.515C39.7563 40.0724 41.5705 41.6101 43.4508 43.2134H43.4464Z" fill="#33706B"/>
<path d="M73.41 62.4772C73.1175 62.4767 72.8318 62.3894 72.5894 62.2267C72.3471 62.0639 72.1589 61.833 72.0491 61.5634C71.9393 61.2938 71.9127 60.9978 71.9728 60.7131C72.0329 60.4284 72.177 60.168 72.3866 59.9651C72.5962 59.7623 72.8618 59.6261 73.1495 59.5741C73.4373 59.5221 73.7341 59.5566 74.002 59.6731C74.27 59.7896 74.497 59.983 74.6539 60.2284C74.8109 60.4738 74.8908 60.7602 74.8834 61.051C74.8698 61.4318 74.709 61.7926 74.4345 62.0583C74.16 62.324 73.793 62.474 73.41 62.4772V62.4772Z" fill="#33706B"/>
<path d="M52.0456 38.5653L43.5636 43.2746L27.3912 30.7172L23.248 20.3186L25.8122 12.4727L34.0963 8.54865L44.9446 15.2178L47.9047 9.92229L58.555 9.52857L64.8665 18.1619L63.0918 23.4596L52.0456 38.5653Z" fill="#33706B"/>
</svg>
