<svg width="72" height="72" viewBox="0 0 72 72" fill="none" xmlns="http://www.w3.org/2000/svg">
<circle cx="36" cy="36" r="36" fill="#CBE6E4"/>
<path d="M43.9655 54.3136C44.5403 54.3136 45.0062 53.8427 45.0062 53.2617C45.0062 52.6807 44.5403 52.2097 43.9655 52.2097C43.3907 52.2097 42.9248 52.6807 42.9248 53.2617C42.9248 53.8427 43.3907 54.3136 43.9655 54.3136Z" fill="#33706B"/>
<path d="M43.9655 54.3136C44.5403 54.3136 45.0062 53.8427 45.0062 53.2617C45.0062 52.6807 44.5403 52.2097 43.9655 52.2097C43.3907 52.2097 42.9248 52.6807 42.9248 53.2617C42.9248 53.8427 43.3907 54.3136 43.9655 54.3136Z" stroke="#33706B"/>
<path d="M40.0932 54.9836C30.9236 54.9836 23.4639 46.6732 23.4639 36.4618C23.4639 26.2504 30.9236 17.9399 40.0932 17.9399C45.6464 17.9399 50.8124 21.0075 53.9085 26.1452C53.9796 26.2632 54.0271 26.3942 54.0481 26.5307C54.0692 26.6672 54.0634 26.8066 54.0312 26.9408C53.999 27.0751 53.9409 27.2016 53.8603 27.3132C53.7797 27.4248 53.6781 27.5192 53.5614 27.5911C53.4447 27.663 53.3151 27.711 53.1801 27.7323C53.045 27.7536 52.9071 27.7478 52.7743 27.7152C52.6415 27.6826 52.5163 27.6239 52.4059 27.5424C52.2955 27.461 52.2021 27.3583 52.131 27.2403C49.4137 22.7348 44.9137 20.0439 40.0932 20.0439C32.0715 20.0439 25.5453 27.4076 25.5453 36.4618C25.5453 45.516 32.0715 52.8797 40.0932 52.8797C40.3692 52.8797 40.6339 52.9906 40.8291 53.1878C41.0243 53.3851 41.1339 53.6527 41.1339 53.9317C41.1339 54.2107 41.0243 54.4783 40.8291 54.6755C40.6339 54.8728 40.3692 54.9836 40.0932 54.9836Z" fill="#33706B"/>
<path d="M40.0932 54.9836C30.9236 54.9836 23.4639 46.6732 23.4639 36.4618C23.4639 26.2504 30.9236 17.9399 40.0932 17.9399C45.6464 17.9399 50.8124 21.0075 53.9085 26.1452C53.9796 26.2632 54.0271 26.3942 54.0481 26.5307C54.0692 26.6672 54.0634 26.8066 54.0312 26.9408C53.999 27.0751 53.9409 27.2016 53.8603 27.3132C53.7797 27.4248 53.6781 27.5192 53.5614 27.5911C53.4447 27.663 53.3151 27.711 53.1801 27.7323C53.045 27.7536 52.9071 27.7478 52.7743 27.7152C52.6415 27.6826 52.5163 27.6239 52.4059 27.5424C52.2955 27.461 52.2021 27.3583 52.131 27.2403C49.4137 22.7348 44.9137 20.0439 40.0932 20.0439C32.0715 20.0439 25.5453 27.4076 25.5453 36.4618C25.5453 45.516 32.0715 52.8797 40.0932 52.8797C40.3692 52.8797 40.6339 52.9906 40.8291 53.1878C41.0243 53.3851 41.1339 53.6527 41.1339 53.9317C41.1339 54.2107 41.0243 54.4783 40.8291 54.6755C40.6339 54.8728 40.3692 54.9836 40.0932 54.9836Z" stroke="#33706B"/>
<path d="M46.9129 53.228C46.6811 53.2282 46.4559 53.1502 46.273 53.0065C46.09 52.8627 45.9598 52.6613 45.9029 52.4342C45.846 52.2071 45.8658 51.9673 45.959 51.7529C46.0522 51.5384 46.2136 51.3615 46.4175 51.2503C48.0745 50.3385 49.543 49.114 50.7437 47.6431C50.9205 47.4288 51.1742 47.2943 51.4491 47.2692C51.724 47.244 51.9975 47.3303 52.2095 47.509C52.4215 47.6877 52.5545 47.9442 52.5794 48.222C52.6043 48.4999 52.519 48.7764 52.3422 48.9907C50.9721 50.6671 49.2969 52.0626 47.4072 53.1017C47.2553 53.1846 47.0854 53.228 46.9129 53.228Z" fill="#33706B"/>
<path d="M46.9129 53.228C46.6811 53.2282 46.4559 53.1502 46.273 53.0065C46.09 52.8627 45.9598 52.6613 45.9029 52.4342C45.846 52.2071 45.8658 51.9673 45.959 51.7529C46.0522 51.5384 46.2136 51.3615 46.4175 51.2503C48.0745 50.3385 49.543 49.114 50.7437 47.6431C50.9205 47.4288 51.1742 47.2943 51.4491 47.2692C51.724 47.244 51.9975 47.3303 52.2095 47.509C52.4215 47.6877 52.5545 47.9442 52.5794 48.222C52.6043 48.4999 52.519 48.7764 52.3422 48.9907C50.9721 50.6671 49.2969 52.0626 47.4072 53.1017C47.2553 53.1846 47.0854 53.228 46.9129 53.228Z" stroke="#33706B"/>
<path d="M34.4428 40.9779H20.0811C19.7361 40.9779 19.4053 40.8394 19.1613 40.5928C18.9173 40.3462 18.7803 40.0117 18.7803 39.663C18.7803 39.3142 18.9173 38.9798 19.1613 38.7332C19.4053 38.4866 19.7361 38.348 20.0811 38.348H34.4428C34.7878 38.348 35.1187 38.4866 35.3627 38.7332C35.6066 38.9798 35.7437 39.3142 35.7437 39.663C35.7437 40.0117 35.6066 40.3462 35.3627 40.5928C35.1187 40.8394 34.7878 40.9779 34.4428 40.9779Z" fill="#33706B"/>
<path d="M34.4428 40.9779H20.0811C19.7361 40.9779 19.4053 40.8394 19.1613 40.5928C18.9173 40.3462 18.7803 40.0117 18.7803 39.663C18.7803 39.3142 18.9173 38.9798 19.1613 38.7332C19.4053 38.4866 19.7361 38.348 20.0811 38.348H34.4428C34.7878 38.348 35.1187 38.4866 35.3627 38.7332C35.6066 38.9798 35.7437 39.3142 35.7437 39.663C35.7437 40.0117 35.6066 40.3462 35.3627 40.5928C35.1187 40.8394 34.7878 40.9779 34.4428 40.9779Z" stroke="#33706B"/>
<path d="M34.4428 34.6662H20.0811C19.7361 34.6662 19.4053 34.5276 19.1613 34.281C18.9173 34.0344 18.7803 33.7 18.7803 33.3512C18.7803 33.0025 18.9173 32.668 19.1613 32.4214C19.4053 32.1748 19.7361 32.0363 20.0811 32.0363H34.4428C34.7878 32.0363 35.1187 32.1748 35.3627 32.4214C35.6066 32.668 35.7437 33.0025 35.7437 33.3512C35.7437 33.7 35.6066 34.0344 35.3627 34.281C35.1187 34.5276 34.7878 34.6662 34.4428 34.6662Z" fill="#33706B"/>
<path d="M34.4428 34.6662H20.0811C19.7361 34.6662 19.4053 34.5276 19.1613 34.281C18.9173 34.0344 18.7803 33.7 18.7803 33.3512C18.7803 33.0025 18.9173 32.668 19.1613 32.4214C19.4053 32.1748 19.7361 32.0363 20.0811 32.0363H34.4428C34.7878 32.0363 35.1187 32.1748 35.3627 32.4214C35.6066 32.668 35.7437 33.0025 35.7437 33.3512C35.7437 33.7 35.6066 34.0344 35.3627 34.281C35.1187 34.5276 34.7878 34.6662 34.4428 34.6662Z" stroke="#33706B"/>
</svg>
