<svg width="72" height="72" viewBox="0 0 72 72" fill="none" xmlns="http://www.w3.org/2000/svg">
<circle cx="36" cy="36" r="36" fill="#CBE6E4"/>
<path d="M36.2095 54.9C25.904 54.9 17.5195 46.5156 17.5195 36.21C17.5195 25.9044 25.904 17.52 36.2095 17.52C46.5151 17.52 54.8995 25.9044 54.8995 36.21C54.8995 36.9213 54.8596 37.6319 54.78 38.3387C54.7523 38.5822 54.6291 38.8048 54.4373 38.9574C54.2455 39.1101 54.001 39.1803 53.7575 39.1526C53.514 39.1249 53.2914 39.0017 53.1388 38.8099C52.9861 38.6181 52.9159 38.3736 52.9436 38.1301C53.0163 37.4927 53.0526 36.8516 53.0523 36.21C53.0523 26.9226 45.4969 19.3673 36.2095 19.3673C26.9221 19.3673 19.3668 26.9226 19.3668 36.21C19.3668 45.4974 26.9221 53.0527 36.2095 53.0527C38.5123 53.0622 40.7921 52.5948 42.9053 51.68C45.0186 50.7651 46.9195 49.4226 48.4884 47.737C48.6562 47.5583 48.888 47.4536 49.1329 47.4458C49.3779 47.4381 49.6159 47.5279 49.7946 47.6957C49.9732 47.8634 50.078 48.0952 50.0857 48.3402C50.0934 48.5851 50.0036 48.8231 49.8358 49.0018C48.0896 50.8658 45.9791 52.3511 43.6351 53.3657C41.2911 54.3803 38.7637 54.9025 36.2095 54.9V54.9Z" fill="#33706B"/>
<path d="M36.3424 45.0171L34.4365 39.3862C34.3382 39.0952 34.1717 38.832 33.9509 38.6186C33.7301 38.4052 33.4614 38.2477 33.1673 38.1594L27.0094 36.3121C26.9082 36.2816 26.8189 36.2209 26.7533 36.138C26.6877 36.0552 26.6491 35.9543 26.6426 35.8488C26.6361 35.7434 26.662 35.6385 26.7169 35.5482C26.7718 35.458 26.853 35.3867 26.9496 35.344L43.6641 27.9853C43.759 27.9432 43.8643 27.9307 43.9664 27.9494C44.0685 27.968 44.1626 28.0171 44.2364 28.0901C44.3103 28.163 44.3603 28.2566 44.3802 28.3585C44.4 28.4604 44.3886 28.5659 44.3476 28.6612L37.3062 45.0552C37.2652 45.1513 37.1958 45.2328 37.1074 45.2887C37.019 45.3446 36.9157 45.3723 36.8112 45.3682C36.7067 45.3641 36.6059 45.3283 36.5222 45.2656C36.4385 45.2029 36.3758 45.1162 36.3424 45.0171V45.0171Z" fill="#33706B"/>
<path d="M36.2095 20.5626C37.6498 20.5626 38.8174 20.0274 38.8174 19.3673C38.8174 18.7071 37.6498 18.172 36.2095 18.172C34.7692 18.172 33.6016 18.7071 33.6016 19.3673C33.6016 20.0274 34.7692 20.5626 36.2095 20.5626Z" fill="#33706B"/>
<path d="M36.1011 54.3566C37.5414 54.3566 38.709 53.8215 38.709 53.1614C38.709 52.5012 37.5414 51.9661 36.1011 51.9661C34.6608 51.9661 33.4932 52.5012 33.4932 53.1614C33.4932 53.8215 34.6608 54.3566 36.1011 54.3566Z" fill="#33706B"/>
<path d="M19.2578 38.8179C19.9179 38.8179 20.4531 37.6503 20.4531 36.21C20.4531 34.7697 19.9179 33.6021 19.2578 33.6021C18.5976 33.6021 18.0625 34.7697 18.0625 36.21C18.0625 37.6503 18.5976 38.8179 19.2578 38.8179Z" fill="#33706B"/>
<path d="M52.0203 46.0984C52.5304 46.0984 52.9439 45.6848 52.9439 45.1747C52.9439 44.6646 52.5304 44.2511 52.0203 44.2511C51.5102 44.2511 51.0967 44.6646 51.0967 45.1747C51.0967 45.6848 51.5102 46.0984 52.0203 46.0984Z" fill="#33706B"/>
</svg>
